 <svg
                    xmlns="http://www.w3.org/2000/svg"
                    width="15"
                    height="10"
                    viewBox="0 0 15 10"
                  >
                    <path
                      fill="#353e4a"
                      fill-rule="evenodd"
                      d="M.049 5.091l-.002-.01C.044 5.053.043 5.026.043 5c0-.028.001-.054.004-.08l.002-.012c.002-.023.006-.046.01-.068.032-.15.107-.289.22-.4L4.57.232C4.724.082 4.926 0 5.141 0c.215 0 .417.082.569.231.152.15.235.348.235.558 0 .211-.083.41-.235.559L2.79 4.21h11.447c.444 0 .805.354.805.789 0 .435-.361.79-.805.79H2.791L5.71 8.651c.152.15.235.348.235.559 0 .21-.083.409-.235.558-.152.149-.354.231-.57.231-.214 0-.416-.082-.569-.231L.28 5.559c-.113-.111-.188-.25-.22-.4-.004-.022-.008-.045-.01-.068z"
                    />
                  </svg>
