<?xml version="1.0" encoding="UTF-8"?>
<svg width="9px" height="9px" viewBox="0 0 9 9" version="1.1" xmlns="http://www.w3.org/2000/svg" xmlns:xlink="http://www.w3.org/1999/xlink">
    <title>Fill 1 Copy</title>
    <g id="Symbols" stroke="none" stroke-width="1" fill="none" fill-rule="evenodd">
        <g id="Drop-down/open" transform="translate(-308.000000, -18.000000)" fill="#7A6958">
            <g id="drop-down">
                <path d="M316.994995,22.5823081 C316.99544,22.5788975 316.996219,22.5756006 316.996552,22.5720764 C316.998888,22.5483162 317,22.5243286 317,22.5001137 C317,22.4758987 316.998888,22.4519112 316.996552,22.428151 C316.996219,22.4246267 316.99544,22.4213299 316.994995,22.4178056 C316.992771,22.397456 316.98999,22.3771063 316.986097,22.3570977 C316.958848,22.2213577 316.894007,22.0972135 316.796578,21.9976252 L313.089158,18.2080439 C312.957806,18.0738954 312.783302,18 312.597675,18 C312.411937,18 312.237543,18.0738954 312.106081,18.2080439 C311.974841,18.342306 311.902548,18.5206781 311.902548,18.7105323 C311.902548,18.9003865 311.974841,19.0787586 312.106081,19.2129071 L314.62678,21.7894677 L308.695127,21.7894677 C308.311862,21.7894677 308,22.1082409 308,22.5 C308,22.8918728 308.311862,23.2105323 308.695127,23.2105323 L314.62678,23.2105323 L312.106081,25.7872066 C311.974841,25.9213551 311.902548,26.0997272 311.902548,26.2894677 C311.902548,26.4793219 311.974841,26.6578076 312.106081,26.7919561 C312.237543,26.9262183 312.411937,27 312.597675,27 C312.783302,27 312.957806,26.9262183 313.089158,26.7919561 L316.796578,23.0024884 C316.894007,22.9030139 316.958848,22.7788697 316.985764,22.6439254 C316.98999,22.623121 316.992771,22.6027714 316.994995,22.5823081 Z" id="Fill-1-Copy" transform="translate(312.500000, 22.500000) scale(1, -1) rotate(-270.000000) translate(-312.500000, -22.500000) "></path>
            </g>
        </g>
    </g>
</svg>