<?xml version="1.0" encoding="UTF-8"?>
<svg width="19px" height="9px" viewBox="0 0 19 9" version="1.1" xmlns="http://www.w3.org/2000/svg" xmlns:xlink="http://www.w3.org/1999/xlink">
    <!-- Generator: Sketch 53.2 (72643) - https://sketchapp.com -->
    <title>Fill 1 Copy</title>
    <desc>Created with Sketch.</desc>
    <g id="Projects" stroke="none" stroke-width="1" fill="none" fill-rule="evenodd">
        <g id="filter" transform="translate(-11.000000, -26.000000)" fill="#7a6958">
            <g id="top-bar">
                <g id="back" transform="translate(11.000000, 15.000000)">
                    <path d="M18.9949951,15.5823081 C18.99544,15.5788975 18.9962185,15.5756006 18.9965522,15.5720764 C18.9988878,15.5483162 19,15.5243286 19,15.5001137 C19,15.4758987 18.9988878,15.4519112 18.9965522,15.428151 C18.9962185,15.4246267 18.99544,15.4213299 18.9949951,15.4178056 C18.9927707,15.397456 18.9899902,15.3771063 18.9860975,15.3570977 C18.9588485,15.2213577 18.894007,15.0972135 18.7965779,14.9976252 L15.0891578,11.2080439 C14.9578065,11.0738954 14.7833017,11 14.5976749,11 C14.4119369,11 14.2375433,11.0738954 14.1060808,11.2080439 C13.9748408,11.342306 13.9025475,11.5206781 13.9025475,11.7105323 C13.9025475,11.9003865 13.9748408,12.0787586 14.1060808,12.2129071 L16.6267795,14.7894677 L0.695127377,14.7894677 C0.311861946,14.7894677 0,15.1082409 0,15.5 C0,15.8918728 0.311861946,16.2105323 0.695127377,16.2105323 L16.6267795,16.2105323 L14.1060808,18.7872066 C13.9748408,18.9213551 13.9025475,19.0997272 13.9025475,19.2894677 C13.9025475,19.4793219 13.9748408,19.6578076 14.1060808,19.7919561 C14.2375433,19.9262183 14.4119369,20 14.5976749,20 C14.7833017,20 14.9578065,19.9262183 15.0891578,19.7919561 L18.7965779,16.0024884 C18.894007,15.9030139 18.9588485,15.7788697 18.9857638,15.6439254 C18.9899902,15.623121 18.9927707,15.6027714 18.9949951,15.5823081 Z" id="Fill-1-Copy" transform="translate(9.500000, 15.500000) scale(-1, 1) translate(-9.500000, -15.500000) "></path>
                </g>
            </g>
        </g>
    </g>
</svg>