<svg xmlns="http://www.w3.org/2000/svg" width="27" height="24" viewBox="0 0 27 24">
    <path fill="#353E4A" d="M25.188 4.332h-7.263V2.308c0-1.273-1.01-2.308-2.25-2.308h-4.35c-1.24 0-2.25 1.035-2.25 2.308v2.024H1.812C.819 4.332 0 5.19 0 6.204v5.964c0 .197.121.371.303.436l.84.299-.018 9.226c0 1.032.813 1.871 1.812 1.871h21.126c1 0 1.812-.84 1.812-1.871v-9.23l.823-.295c.18-.065.302-.24.302-.436V6.204c0-1.014-.819-1.872-1.812-1.872zM9.975 2.308c0-.764.606-1.385 1.35-1.385h4.35c.744 0 1.35.621 1.35 1.385v2.024h-7.05V2.308zm15 19.82c0 .524-.41.95-.912.95H2.937c-.503 0-.912-.426-.912-.948l.017-8.907 9.12 3.246v1.195c0 .255.2.461.45.461h3.876c.249 0 .45-.206.45-.461v-1.2l9.037-3.242v8.907zm-12.914-4.926v-2.526h2.977v2.526h-2.977zm14.04-5.362l-10.163 3.646v-1.271c0-.255-.201-.462-.45-.462h-3.877c-.248 0-.45.207-.45.462v1.277L.9 11.84V6.204c0-.511.41-.949.912-.949h23.376c.503 0 .912.437.912.949v5.636z"/>
</svg>
