<svg xmlns="http://www.w3.org/2000/svg" width="120" height="34" viewBox="0 0 120 34">
    <g fill="none">
        <path fill="#B2B2B2" d="M16.533 17.067L22.4 11.34 22.4 0 16.533 5.727z"/>
        <path fill="#DADADA" d="M33.6 11.2L27.877 17.067 16.533 17.067 22.26 11.2z"/>
        <path fill="#1D1D1B" d="M22.409 0L22.4 0 22.4 11.183 22.4 11.2 22.43 11.2 33.509 11.2 33.6 11.2 33.6 0z"/>
        <path fill="#B2B2B2" d="M17.067 16.533L11.2 22.26 11.2 33.6 17.067 27.877z"/>
        <path fill="#DADADA" d="M0 22.4L5.727 16.533 17.067 16.533 11.344 22.4z"/>
        <path fill="#FFF" d="M11.191 33.6L11.2 33.6 11.2 22.417 11.2 22.4 11.165 22.4 0.087 22.4 0 22.4 0 33.6z"/>
        <path fill="#7B6A58" d="M17.067 28.267L28.154 28.267 28.267 28.267 28.267 17.067 17.067 17.067z"/>
        <path fill="#CBBBA0" d="M5.867 17.067L16.958 17.067 17.067 17.067 17.067 5.867 5.867 5.867z"/>
        <path fill="#FFF" d="M40 27.925V11.213h2.895v16.712H40zm13.825 0v-7.566c0-1.877-.937-2.508-2.398-2.508-1.216.035-2.349.637-3.067 1.633v8.44h-2.592V15.813h2.592v1.654c1.06-1.23 2.59-1.942 4.204-1.956 2.592 0 3.862 1.405 3.862 3.882v8.533h-2.6zm5.889-2.805v-7.002h-1.979v-2.306h1.979v-3.295h2.592v3.295h2.424v2.302h-2.424v6.354c0 .827.393 1.43 1.136 1.43.429.011.845-.145 1.162-.437l.6 1.991c-.47.438-1.235.775-2.449.775-2 0-3.063-1.103-3.063-3.107h.022zm6.048-3.256c0-3.5 2.528-6.34 6.049-6.34 3.52 0 5.888 2.778 5.888 6.59v.625h-9.25c.2 1.83 1.56 3.335 3.811 3.335 1.252.002 2.46-.466 3.392-1.313l1.188 1.75c-1.337 1.19-3.073 1.817-4.852 1.75-3.586-.034-6.26-2.563-6.26-6.397h.034zm6.049-4.188c-2.225 0-3.24 1.75-3.361 3.208h6.692c-.007-.881-.37-1.722-1.002-2.327-.633-.606-1.482-.923-2.35-.88h.02zm7.867 10.249V11.213h2.592v16.712h-2.592zm5.37 0V11.213h2.593v16.712h-2.593zm5.37 0V15.812h2.593v12.113h-2.592zm4.597-6.06c0-3.462 2.35-6.342 6.135-6.342 3.785 0 6.161 2.88 6.161 6.341 0 3.462-2.329 6.363-6.16 6.363-3.833 0-6.136-2.88-6.136-6.363zm9.596 0c0-2.132-1.236-4.014-3.456-4.014-2.221 0-3.457 1.882-3.457 4.013 0 2.131 1.236 4.035 3.457 4.035 2.22 0 3.465-1.882 3.465-4.035h-.01zm12.792 6.06v-7.566c0-1.877-.937-2.508-2.397-2.508-1.217.034-2.35.636-3.068 1.633v8.44h-2.592V15.813h2.592v1.654c1.061-1.23 2.591-1.942 4.204-1.956 2.592 0 3.858 1.405 3.858 3.882v8.533h-2.597zM93.023 11.2h-2.7v2.74h2.7V11.2z"/>
    </g>
</svg>
