<?xml version="1.0" encoding="UTF-8"?>
<svg width="23px" height="23px" viewBox="0 0 23 23" version="1.1" xmlns="http://www.w3.org/2000/svg" xmlns:xlink="http://www.w3.org/1999/xlink">
    <!-- Generator: Sketch 53.2 (72643) - https://sketchapp.com -->
    <title>Combined Shape</title>
    <desc>Created with Sketch.</desc>
    <g id="Symbols" stroke="none" stroke-width="1" fill="none" fill-rule="evenodd">
        <g id="Mobile-Share" transform="translate(-266.000000, -15.000000)" fill="#7A6958" fill-rule="nonzero">
            <g id="Group-7" transform="translate(250.000000, 0.000000)">
                <path d="M37.2043587,16.7961717 C39.5985396,19.1910672 39.5985396,23.0739508 37.2044036,25.4687115 L33.4092934,29.264579 C31.0137648,31.6595644 27.129527,31.6595644 24.7346722,29.264579 C24.3022866,28.8307117 23.947124,28.3477883 23.6705769,27.8354403 L24.6813035,26.8233677 C24.9901503,26.5145663 25.394414,26.3348739 25.8267997,26.3110197 C26.000877,26.7209431 26.2535249,27.097174 26.5778254,27.4200813 C27.2445752,28.0869199 28.1289329,28.4532228 29.0723197,28.4532228 C30.014269,28.4532228 30.9001092,28.0869199 31.5661402,27.4200813 L35.3605766,23.6256065 C36.0266976,22.9602055 36.3929562,22.0744117 36.3929562,21.1324641 C36.3929562,20.1891238 36.0266976,19.3047227 35.3605766,18.6393217 C34.6945006,17.9725281 33.8087054,17.6061352 32.8666663,17.6061352 C31.9247171,17.6061352 31.0389218,17.9725281 30.3728458,18.6393217 L28.4335121,20.5779782 C27.6361706,20.3127073 26.7939508,20.1751078 25.9278319,20.1751078 C25.6526774,20.1751078 25.3789155,20.1877761 25.1079839,20.2172457 L28.5304114,16.7961717 C30.9252661,14.4012761 34.8088301,14.4012761 37.2043587,16.7961717 Z M29.1129752,32.8233423 L29.1144127,32.8234771 C29.3741586,32.8234771 29.6317481,32.8107189 29.8865074,32.7869546 L26.4697402,36.2037609 C24.0749304,38.5987464 20.1920402,38.5987464 17.7971855,36.2037609 C15.4009382,33.8074728 15.4009382,29.924724 17.7971855,27.5297386 L21.5916219,23.7338711 C23.9864767,21.3389756 27.8707145,21.3389756 30.2655692,23.7338711 C30.6986287,24.1676486 31.0545101,24.6505271 31.3310572,25.1643575 L30.3217232,26.1750824 C30.0128764,26.4838838 29.6078939,26.6649689 29.1741157,26.6874304 C28.9992297,26.277552 28.7459977,25.901321 28.4216524,25.5770661 C27.7556213,24.9116651 26.8712187,24.5452722 25.9278768,24.5452722 C24.9859276,24.5452722 24.1015249,24.9116651 23.4347302,25.5770661 L19.6402937,29.371496 C18.973499,30.0381998 18.6071055,30.9240385 18.6071055,31.866031 C18.6071055,32.8080236 18.973499,33.6937275 19.6402937,34.3591734 C20.3071334,35.0260119 21.1914912,35.3923598 22.1334404,35.3923598 C23.0753896,35.3923598 23.96114,35.0260119 24.6265421,34.3591734 L26.579218,32.406411 C27.3947534,32.6829576 28.2454188,32.8233423 29.1129752,32.8233423 Z" id="Combined-Shape"></path>
            </g>
        </g>
    </g>
</svg>