<svg xmlns="http://www.w3.org/2000/svg" width="22" height="18" viewBox="0 0 22 18">
    <path fill="#7A6958" fill-rule="evenodd" d="M22 2.13c-.808.362-1.679.607-2.592.716.933-.562 1.648-1.452 1.985-2.513-.873.52-1.837.898-2.868 1.101C17.704.551 16.53 0 15.231 0c-2.491 0-4.512 2.035-4.512 4.544 0 .356.039.702.116 1.035-3.75-.19-7.076-1.997-9.304-4.75-.388.674-.61 1.455-.61 2.287 0 1.576.796 2.967 2.008 3.782-.739-.022-1.436-.228-2.046-.566v.055c0 2.203 1.556 4.04 3.622 4.456-.378.107-.777.16-1.189.16-.29 0-.575-.027-.85-.08.575 1.804 2.24 3.118 4.217 3.153-1.545 1.22-3.492 1.947-5.606 1.947-.364 0-.724-.021-1.077-.063C1.998 17.247 4.371 18 6.919 18c8.303 0 12.842-6.923 12.842-12.928 0-.198-.004-.396-.012-.59.882-.64 1.648-1.44 2.251-2.351"/>
</svg>
