<svg xmlns="http://www.w3.org/2000/svg" width="40" height="41" viewBox="0 0 40 41">
    <g fill="none" fill-rule="evenodd">
        <path fill="#F2E6CF" d="M0 0H40V40H0z" transform="translate(0 .5)"/>
        <path fill="#7A6958" d="M15.005 20.582l-.002-.01L15 20.5l.003-.072.002-.01.009-.06c.027-.137.092-.26.19-.36l3.707-3.79c.131-.134.306-.208.491-.208.186 0 .36.074.492.208.131.134.203.313.203.503s-.072.368-.203.502l-2.52 2.576h5.93c.384 0 .696.32.696.711 0 .392-.312.71-.695.71h-5.932l2.52 2.577c.132.134.204.313.204.502 0 .19-.072.369-.203.503-.132.134-.306.208-.492.208-.185 0-.36-.074-.491-.208l-3.708-3.79c-.097-.099-.162-.223-.189-.358-.004-.02-.007-.041-.009-.062z" transform="translate(0 .5)"/>
    </g>
</svg>
