<svg xmlns="http://www.w3.org/2000/svg" width="17" height="17" viewBox="0 0 17 17">
    <path fill="#7A6958" d="M14.13 9.944c-.434-.42-1.013-.656-1.616-.662-.3-.001-.597.056-.874.17-.278.114-.53.28-.742.492l-.598.597c-.21 0-.922-.274-2.23-1.614-.72-.584-1.271-1.347-1.6-2.212l.597-.597c.427-.43.666-1.01.666-1.614 0-.605-.24-1.185-.666-1.614L4.853.678c-.21-.216-.46-.388-.738-.504C3.837.057 3.538-.002 3.237 0c-.3 0-.599.06-.876.176-.278.117-.53.287-.74.502l-.695.662C.263 1.986-.658 3.6.7 6.667c1.004 2.087 2.366 3.983 4.024 5.601 2.925 2.906 6.174 4.73 8.5 4.73.45.016.897-.06 1.316-.22.42-.161.802-.405 1.125-.716l.663-.662c.213-.212.382-.463.497-.74.116-.277.175-.574.175-.874 0-.3-.06-.597-.175-.874-.115-.278-.284-.529-.497-.74L14.13 9.943zm1.066 4.31l-.646.645c-.174.16-.378.283-.6.363-.222.08-.457.116-.693.106-1.81 0-4.703-1.615-7.353-4.262-3.459-3.422-5.172-7.28-3.83-8.62l.678-.662c.062-.066.137-.119.22-.155.084-.036.174-.055.265-.055.182.007.355.082.485.21L5.904 4.02c.064.063.115.138.15.221.035.083.053.173.053.263 0 .09-.018.18-.053.262-.035.084-.086.159-.15.222l-.663.646c-.953.968-.21 2.599 1.616 4.455.875 1.09 2.115 1.83 3.491 2.082.181-.002.36-.04.527-.113.166-.072.317-.176.443-.306l.662-.662c.126-.123.294-.192.47-.194.089-.001.178.015.26.049.084.033.16.082.224.145l2.262 2.195c.065.063.116.139.151.222.035.083.053.172.053.263 0 .09-.018.179-.053.262-.035.083-.086.159-.15.222z"/>
</svg>
