<?xml version="1.0" encoding="UTF-8"?>
<svg width="36px" height="31px" viewBox="0 0 36 31" version="1.1" xmlns="http://www.w3.org/2000/svg" xmlns:xlink="http://www.w3.org/1999/xlink">
    <title>“</title>
    <g stroke="none" stroke-width="1" fill="none" fill-rule="evenodd">
        <g id="TATA-Intellion-Website_Desktop_o2_v1" transform="translate(-436.000000, -2174.000000)" fill="#CBBBA0" fill-rule="nonzero">
            <g id="testimonials" transform="translate(194.000000, 2174.000000)">
                <g id="title" transform="translate(158.000000, 0.000000)">
                    <path d="M119.265625,30.8574219 L119.265625,17.6328125 L113.606445,17.6328125 L113.606445,16.2626953 C113.606445,13.0458984 113.953939,10.4545898 114.648926,8.48876953 C115.343913,6.52294922 116.386393,5.16276042 117.776367,4.40820312 L117.776367,4.40820312 L117.776367,0 C113.844727,0.992838542 110.905924,3.23665365 108.959961,6.73144531 C107.013997,10.226237 106.041016,14.9720052 106.041016,20.96875 L106.041016,20.96875 L106.041016,30.8574219 L119.265625,30.8574219 Z M97.2246094,30.8574219 L97.2246094,17.6328125 L91.5654297,17.6328125 L91.5654297,16.2626953 C91.5654297,13.0458984 91.9129232,10.4545898 92.6079102,8.48876953 C93.3028971,6.52294922 94.3453776,5.16276042 95.7353516,4.40820312 L95.7353516,4.40820312 L95.7353516,0 C91.8037109,0.992838542 88.8649089,3.23665365 86.9189453,6.73144531 C84.9729818,10.226237 84,14.9720052 84,20.96875 L84,20.96875 L84,30.8574219 L97.2246094,30.8574219 Z" id="“"></path>
                </g>
            </g>
        </g>
    </g>
</svg>