<?xml version="1.0" encoding="UTF-8"?>
<svg width="18px" height="22px" viewBox="0 0 18 22" version="1.1" xmlns="http://www.w3.org/2000/svg" xmlns:xlink="http://www.w3.org/1999/xlink">
    <title>Combined Shape</title>
    <g stroke="none" stroke-width="1" fill="none" fill-rule="evenodd">
        <g id="TATA-Intellion-Website_Desktop_o2_v2" transform="translate(-711.000000, -642.000000)" fill="#CBBBA0">
            <g id="banner">
                <g id="scroll" transform="translate(694.500000, 642.000000)">
                    <path d="M17.9210646,12 C18.3005457,12 18.6572897,12.1418223 18.9255867,12.3992843 L18.9255867,12.3992843 L25.6436981,18.2125293 L32.0741859,12.3992843 C32.3424829,12.1418223 32.6992269,12 33.0789354,12 C33.4586439,12 33.8153879,12.1418223 34.0839123,12.3992843 C34.3522093,12.6571828 34.5,12.9993018 34.5,13.363676 C34.5,13.7278321 34.3522093,14.0701693 34.0839123,14.3278495 L34.0839123,14.3278495 L26.5047495,21.6009338 C26.3055731,21.7920667 26.0572847,21.9192704 25.7858045,21.9727265 C25.7457873,21.9803631 25.705088,21.9858178 25.6643888,21.9901815 C25.6573403,21.9910543 25.6507465,21.9925816 25.6436981,21.9932362 C25.5961777,21.9978181 25.5482025,22 25.4997726,22 C25.4513427,22 25.4033676,21.9978181 25.3558472,21.9932362 C25.3487987,21.9925816 25.342205,21.9910543 25.3353839,21.9901815 C25.2944572,21.9858178 25.2537579,21.9803631 25.2121492,21.9720719 C24.9422606,21.9192704 24.6939722,21.7920667 24.4950231,21.6009338 L24.4950231,21.6009338 L16.9160877,14.3278495 C16.6475633,14.0701693 16.5,13.7278321 16.5,13.363676 C16.5,12.9993018 16.6475633,12.6571828 16.9160877,12.3992843 C17.1843847,12.1418223 17.5413561,12 17.9210646,12 Z M21.2894803,5 C21.5003032,5 21.6984943,5.08509338 21.8475482,5.23957061 L21.8475482,5.23957061 L25.5798323,8.72751761 L29.1523255,5.23957061 C29.3013794,5.08509338 29.4995705,5 29.7105197,5 C29.9214688,5 30.11966,5.08509338 30.2688402,5.23957061 C30.417894,5.39430965 30.5,5.59958108 30.5,5.81820562 C30.5,6.03669925 30.417894,6.24210159 30.2688402,6.39670972 L30.2688402,6.39670972 L26.0581942,10.7605603 C25.9475406,10.87524 25.8096026,10.9515622 25.6587803,10.9836359 C25.6365485,10.9882178 25.6139378,10.9914907 25.5913271,10.9941089 C25.5874113,10.9946326 25.5837481,10.995549 25.5798323,10.9959417 C25.553432,10.9986909 25.5267792,11 25.4998737,11 C25.4729682,11 25.4463153,10.9986909 25.4199151,10.9959417 C25.4159993,10.995549 25.4123361,10.9946326 25.4085466,10.9941089 C25.3858096,10.9914907 25.3631988,10.9882178 25.3400829,10.9832431 C25.1901448,10.9515622 25.0522068,10.87524 24.9416795,10.7605603 L24.9416795,10.7605603 L20.7311598,6.39670972 C20.5819796,6.24210159 20.5,6.03669925 20.5,5.81820562 C20.5,5.59958108 20.5819796,5.39430965 20.7311598,5.23957061 C20.8802137,5.08509338 21.0785312,5 21.2894803,5 Z M28.3070131,9.59729153e-16 C28.4476459,9.85562973e-16 28.5797733,0.056728923 28.6792268,0.159713737 C28.778596,0.262873102 28.8333333,0.399720719 28.8333333,0.545470414 C28.8333333,0.691132833 28.778596,0.828067726 28.6792268,0.931139815 L28.6792268,0.931139815 L25.8721294,3.84037354 C25.7983604,3.91682667 25.7064017,3.96770815 25.6058535,3.98909059 C25.5910323,3.99214523 25.5759585,3.99432711 25.5608847,3.99607261 C25.5582742,3.99642171 25.555832,3.99703264 25.5532215,3.99729447 C25.5356214,3.99912725 25.5178528,4 25.4999158,4 C25.4819788,4 25.4642102,3.99912725 25.4466101,3.99729447 C25.4439995,3.99703264 25.4415574,3.99642171 25.4390311,3.99607261 C25.423873,3.99432711 25.4087992,3.99214523 25.3933886,3.98882877 C25.2934298,3.96770815 25.2014712,3.91682667 25.1277863,3.84037354 L25.1277863,3.84037354 L22.3207732,0.931139815 C22.2213198,0.828067726 22.1666667,0.691132833 22.1666667,0.545470414 C22.1666667,0.399720719 22.2213198,0.262873102 22.3207732,0.159713737 C22.4201425,0.056728923 22.5523541,-9.7384553e-17 22.6929869,-7.15507335e-17 C22.8335354,-4.57323834e-17 22.9656629,0.056728923 23.0650321,0.159713737 L23.0650321,0.159713737 L25.5532215,2.48501174 L27.9348837,0.159713737 C28.0342529,0.056728923 28.1663803,9.33895334e-16 28.3070131,9.59729153e-16 Z" id="Combined-Shape"></path>
                </g>
            </g>
        </g>
    </g>
</svg>