<?xml version="1.0" encoding="UTF-8"?>
<svg width="641px" height="74px" viewBox="0 0 641 74" version="1.1" xmlns="http://www.w3.org/2000/svg" xmlns:xlink="http://www.w3.org/1999/xlink">
    <title>Group</title>
    <g id="Symbols" stroke="none" stroke-width="1" fill="none" fill-rule="evenodd">
        <g id="Symbols-Group" fill="#005C9C">
            <path d="M104.6103,10.4573 C112.3923,31.5953 121.2663,51.7973 128.5733,73.3963 L104.0113,73.3963 C100.0693,60.7763 95.4053,48.8833 91.4173,36.1893 C86.9693,48.3933 82.4983,60.4943 78.7893,73.3963 L54.2353,73.3963 C61.8693,52.0803 69.6583,30.8673 78.1573,10.4573 L104.6103,10.4573 Z" id="Fill-1"></path>
            <path d="M228.1474,10.4573 C235.9334,31.5953 244.7854,51.7973 252.1254,73.3963 L227.5564,73.3963 C223.6244,60.7763 218.9274,48.8833 214.9734,36.1893 C210.5364,48.3933 206.0314,60.4943 202.3674,73.3963 L177.7694,73.3963 C185.3954,52.0803 193.1624,30.8673 201.7544,10.4573 L228.1474,10.4573 Z" id="Fill-3"></path>
            <polygon id="Fill-5" points="0 10.4573 0 29.0613 17.686 29.0613 17.686 73.3963 42.619 73.3963 42.619 29.0613 43.436 29.0613 60.211 29.0613 60.211 10.4573"></polygon>
            <polygon id="Fill-7" points="123.5634 10.4573 123.5634 29.0613 141.1894 29.0613 141.1894 73.3963 166.1634 73.3963 166.1634 29.0613 167.0184 29.0613 183.7974 29.0613 183.7974 10.4573"></polygon>
            <path d="M306.3515,39.114 L313.2875,39.114 C321.2125,39.114 326.1665,35.001 326.1665,28.714 C326.1665,21.817 321.2125,18.65 313.5415,18.65 C309.8665,18.65 307.4975,18.877 306.3515,19.213 L306.3515,39.114 Z M294.7155,11.292 C299.1335,10.502 305.6835,9.955 312.4625,9.955 C321.6975,9.955 327.9885,11.456 332.2345,15.007 C335.8245,17.884 337.7825,22.255 337.7825,27.572 C337.7825,35.736 332.2105,41.226 326.1665,43.407 L326.1665,43.72 C330.7725,45.307 333.4975,49.764 335.1515,55.833 C337.1295,63.66 338.8845,70.971 340.1675,73.364 L328.0745,73.364 C327.1395,71.511 325.6075,66.366 323.8165,58.492 C321.9905,50.281 318.9365,47.67 312.2785,47.552 L306.3515,47.552 L306.3515,73.364 L294.7155,73.364 L294.7155,11.292 Z" id="Fill-9"></path>
            <polygon id="Fill-11" points="387.2695 45.4558 363.0325 45.4558 363.0325 63.9808 390.1125 63.9808 390.1125 73.3638 351.3185 73.3638 351.3185 10.4478 388.6615 10.4478 388.6615 19.8778 363.0325 19.8778 363.0325 36.1118 387.2695 36.1118"></polygon>
            <path d="M434.038,46.8406 L429.011,31.3256 C427.756,27.5336 426.724,23.2246 425.762,19.5806 L425.555,19.5806 C424.593,23.2246 423.619,27.5726 422.489,31.3256 L417.559,46.8406 L434.038,46.8406 Z M415.642,55.5436 L410.134,73.3636 L398.021,73.3636 L418.567,10.4476 L433.573,10.4476 L454.429,73.3636 L441.866,73.3636 L436.063,55.5436 L415.642,55.5436 Z" id="Fill-13"></path>
            <polygon id="Fill-15" points="465.7275 10.4475 477.4565 10.4475 477.4565 63.7465 503.8955 63.7465 503.8955 73.3645 465.7275 73.3645"></polygon>
            <polygon id="Fill-17" points="518.1816 20.0422 499.8446 20.0422 499.8446 10.4472 548.4536 10.4472 548.4536 20.0422 529.9146 20.0422 529.9146 73.3642 518.1816 73.3642"></polygon>
            <path d="M574.4541,73.364 L574.4541,47.091 L554.1151,10.447 L567.5341,10.447 L575.2521,26.579 C577.3871,31.248 579.0591,34.822 580.8271,39.114 L580.9831,39.114 C582.6341,35.095 584.3921,31.162 586.6131,26.579 L594.3481,10.447 L607.6011,10.447 L586.2541,46.841 L586.2541,73.364 L574.4541,73.364 Z" id="Fill-19"></path>
            <path d="M639.2685,12.634 C639.2685,9.477 638.1735,6.798 635.9845,4.597 C633.7605,2.362 631.0585,1.244 627.8775,1.244 C624.7205,1.244 622.0645,2.339 619.9105,4.528 C617.6515,6.821 616.5225,9.523 616.5225,12.634 C616.5225,15.734 617.6435,18.405 619.8845,20.645 C622.1245,22.886 624.7895,24.007 627.8775,24.007 C630.1485,24.007 632.2595,23.356 634.2125,22.054 C636.1655,20.752 637.5745,19.058 638.4385,16.972 C638.9925,15.624 639.2685,14.178 639.2685,12.634 M627.8775,0 C631.3925,0 634.3885,1.238 636.8665,3.716 C638.0645,4.914 638.9715,6.274 639.5875,7.795 C640.2045,9.316 640.5125,10.929 640.5125,12.634 C640.5125,16.137 639.2965,19.087 636.8665,21.484 C634.3075,24.007 631.3115,25.269 627.8775,25.269 C624.4555,25.269 621.4995,24.024 619.0115,21.535 C616.5225,19.047 615.2785,16.08 615.2785,12.634 C615.2785,10.122 615.9955,7.783 617.4295,5.617 C618.8645,3.451 620.7345,1.889 623.0395,0.933 C624.5475,0.311 626.1615,0 627.8775,0" id="Fill-21"></path>
            <path d="M624.916,12.2185 L626.918,12.2185 C629.01,12.2185 630.336,11.0715 630.336,9.3395 C630.336,7.3825 628.92,6.5285 626.85,6.5055 C625.904,6.5055 625.23,6.5955 624.916,6.6855 L624.916,12.2185 Z M622.959,5.3135 C623.949,5.1115 625.365,4.9985 626.715,4.9985 C628.807,4.9985 630.156,5.3805 631.102,6.2355 C631.865,6.9095 632.293,7.9455 632.293,9.1145 C632.293,11.1155 631.033,12.4435 629.436,12.9835 L629.436,13.0505 C630.605,13.4545 631.303,14.5345 631.662,16.1095 C632.158,18.2235 632.518,19.6855 632.832,20.2705 L630.809,20.2705 C630.561,19.8425 630.223,18.5375 629.797,16.6495 C629.346,14.5575 628.537,13.7705 626.76,13.7025 L624.916,13.7025 L624.916,20.2705 L622.959,20.2705 L622.959,5.3135 Z" id="Fill-23"></path>
        </g>
    </g>
</svg>