<?xml version="1.0" encoding="UTF-8"?>
<svg width="522px" height="59px" viewBox="0 0 522 59" version="1.1" xmlns="http://www.w3.org/2000/svg" xmlns:xlink="http://www.w3.org/1999/xlink">
    <title>Tata realty(large)</title>
    <defs>
        <filter id="filter-1">
            <feColorMatrix in="SourceGraphic" type="matrix" values="0 0 0 0 1.000000 0 0 0 0 1.000000 0 0 0 0 1.000000 0 0 0 1.000000 0"></feColorMatrix>
        </filter>
    </defs>
    <g stroke="none" stroke-width="1" fill="none" fill-rule="evenodd">
        <g id="TATA-Intellion-Website_Desktop_o2_v3" transform="translate(-458.000000, -327.000000)">
            <g id="banner">
                <g id="banner-text" transform="translate(303.500000, 327.000000)">
                    <g filter="url(#filter-1)" id="Tata-realty(large)">
                        <g transform="translate(155.635135, 0.000000)">
                            <path d="M85.5237473,8 C91.8047879,25.1282988 98.9672082,41.498149 104.864865,59 L85.0402799,59 C81.8585962,48.7739081 78.0941689,39.1369103 74.8753575,28.8508556 C71.285269,38.7398592 67.6766166,48.5454011 64.6829929,59 L44.8648649,59 C51.0264511,41.7274663 57.3131417,24.5383943 64.1728904,8 L85.5237473,8 Z" id="Fill-1" fill="#005C9C" fill-rule="nonzero"></path>
                            <path d="M185.516325,8 C191.799073,25.1282988 198.942007,41.498149 204.864865,59 L185.03943,59 C181.866586,48.7739081 178.076442,39.1369103 174.885845,28.8508556 C171.305502,38.7398592 167.670287,48.5454011 164.7137,59 L144.864865,59 C151.018504,41.7274663 157.28592,24.5383943 164.219053,8 L185.516325,8 Z" id="Fill-3" fill="#005C9C" fill-rule="nonzero"></path>
                            <polygon id="Fill-5" fill="#005C9C" fill-rule="nonzero" points="0.864864865 8 0.864864865 23.0749774 15.2578163 23.0749774 15.2578163 59 35.5484111 59 35.5484111 23.0749774 36.2132896 23.0749774 49.8648649 23.0749774 49.8648649 8"></polygon>
                            <polygon id="Fill-7" fill="#005C9C" fill-rule="nonzero" points="100.864865 8 100.864865 23.0749774 115.203511 23.0749774 115.203511 59 135.519711 59 135.519711 23.0749774 136.215248 23.0749774 149.864865 23.0749774 149.864865 8"></polygon>
                            <path d="M249.337099,31.4526487 L254.983319,31.4526487 C261.434631,31.4526487 265.467413,28.1445536 265.467413,23.0879055 C265.467413,17.540633 261.434631,14.9934079 255.190087,14.9934079 C252.19847,14.9934079 250.269996,15.1759845 249.337099,15.44623 L249.337099,31.4526487 Z M239.864865,9.07535208 C243.461318,8.43995332 248.793317,8 254.311732,8 C261.829443,8 266.950604,9.20725764 270.407041,12.0633349 C273.329465,14.3773124 274.923366,17.8929174 274.923366,22.1693924 C274.923366,28.7357158 270.387504,33.151335 265.467413,34.9055181 L265.467413,35.1572647 C269.216907,36.4336924 271.435181,40.0184674 272.781612,44.8997776 C274.391794,51.1950512 275.820444,57.0753048 276.864865,59 L267.020612,59 C266.259479,57.509628 265.012361,53.371493 263.554405,47.0384173 C262.067958,40.4342917 259.581863,38.3342585 254.161948,38.2393509 L249.337099,38.2393509 L249.337099,59 L239.864865,59 L239.864865,9.07535208 Z" id="Fill-9" fill="#005C9C" fill-rule="nonzero"></path>
                            <polygon id="Fill-11" fill="#005C9C" fill-rule="nonzero" points="314.593044 36.3776464 295.225436 36.3776464 295.225436 51.3940969 316.864865 51.3940969 316.864865 59 285.864865 59 285.864865 8 315.705381 8 315.705381 15.6440015 295.225436 15.6440015 295.225436 28.8033569 314.593044 28.8033569"></polygon>
                            <path d="M353.236266,37.5003338 L349.136812,24.9238032 C348.113376,21.8499905 347.271793,18.3570952 346.487294,15.403252 L346.318488,15.403252 C345.53399,18.3570952 344.739705,21.881604 343.818205,24.9238032 L339.797853,37.5003338 L353.236266,37.5003338 Z M338.234564,44.5550257 L333.742861,59 L323.864865,59 L340.619864,8 L352.857065,8 L369.864865,59 L359.6199,59 L354.887628,44.5550257 L338.234564,44.5550257 Z" id="Fill-13" fill="#005C9C" fill-rule="nonzero"></path>
                            <polygon id="Fill-15" fill="#005C9C" fill-rule="nonzero" points="378.864865 8 388.391143 8 388.391143 51.2037287 409.864865 51.2037287 409.864865 59 378.864865 59"></polygon>
                            <polygon id="Fill-17" fill="#005C9C" fill-rule="nonzero" points="421.577017 15.7776277 406.864865 15.7776277 406.864865 8 445.864865 8 445.864865 15.7776277 430.990644 15.7776277 430.990644 59 421.577017 59"></polygon>
                            <path d="M467.216377,59 L467.216377,37.7033234 L450.864865,8 L461.653052,8 L467.857928,21.0764658 C469.574359,24.8611186 470.918561,27.7581735 472.339942,31.2372332 L472.465358,31.2372332 C473.792678,27.979465 475.20602,24.7914077 476.99159,21.0764658 L483.210133,8 L493.864865,8 L476.702972,37.5006755 L476.702972,59 L467.216377,59 Z" id="Fill-19" fill="#005C9C" fill-rule="nonzero"></path>
                            <path d="M518.878894,9.99960426 C518.878894,7.50089042 518.011017,5.38050576 516.276056,3.63845028 C514.513355,1.86948435 512.3718,0.984605643 509.850598,0.984605643 C507.348419,0.984605643 505.243323,1.85128022 503.536102,3.5838379 C501.745661,5.39870988 500.850836,7.53729867 500.850836,9.99960426 C500.850836,12.4532035 501.73932,14.5672563 503.515495,16.3401797 C505.290877,18.1138945 507.403107,19.0011477 509.850598,19.0011477 C511.650551,19.0011477 513.32369,18.4858918 514.871602,17.4553801 C516.419513,16.4248684 517.536261,15.0840951 518.221051,13.4330603 C518.660141,12.3661403 518.878894,11.221655 518.878894,9.99960426 M509.850598,0 C512.636522,0 515.011096,0.979856741 516.975113,2.94115319 C517.924626,3.88935059 518.643497,4.96576833 519.131727,6.16961494 C519.62075,7.37346155 519.864865,8.65012466 519.864865,9.99960426 C519.864865,12.7721714 518.901086,15.1070482 516.975113,17.0042344 C514.946897,19.0011477 512.572323,20 509.850598,20 C507.138385,20 504.795514,19.0146029 502.823571,17.0446001 C500.850836,15.0753888 499.864865,12.7270569 499.864865,9.99960426 C499.864865,8.01139736 500.433146,6.16011714 501.569708,4.44576358 C502.707062,2.73141003 504.189189,1.49511259 506.016089,0.738454232 C507.211302,0.246151411 508.490529,0 509.850598,0" id="Fill-21" fill="#005C9C" fill-rule="nonzero"></path>
                            <path d="M507.450604,9.67312729 L509.072806,9.67312729 C510.767934,9.67312729 511.842379,8.77187009 511.842379,7.41094814 C511.842379,5.87323206 510.695008,5.2022001 509.017706,5.18412782 C508.251171,5.18412782 507.705035,5.25484547 507.450604,5.32556312 L507.450604,9.67312729 Z M505.864865,4.24751179 C506.667053,4.08878994 507.814424,4 508.908317,4 C510.603445,4 511.696527,4.30015715 512.463062,4.97197486 C513.081314,5.5015715 513.428118,6.31561027 513.428118,7.23415401 C513.428118,8.80644316 512.407152,9.84992142 511.113118,10.2742273 L511.113118,10.3268727 C512.060347,10.6443164 512.62593,11.4929282 512.916825,12.7304872 C513.318729,14.3915663 513.610434,15.5403353 513.864865,16 L512.225647,16 C512.024695,15.6636983 511.750816,14.6382923 511.405633,13.1547931 C511.040192,11.5110005 510.384666,10.8926139 508.94478,10.8391828 L507.450604,10.8391828 L507.450604,16 L505.864865,16 L505.864865,4.24751179 Z" id="Fill-23" fill="#005C9C" fill-rule="nonzero"></path>
                        </g>
                    </g>
                </g>
            </g>
        </g>
    </g>
</svg>