<?xml version="1.0" encoding="UTF-8"?>
<svg width="124px" height="14px" viewBox="0 0 124 14" version="1.1" xmlns="http://www.w3.org/2000/svg" xmlns:xlink="http://www.w3.org/1999/xlink">
    <title>Group</title>
    <g id="Symbols" stroke="none" stroke-width="1" fill="none" fill-rule="evenodd">
        <g id="Navigation-Bar/Desktop/Scroll-&amp;-Hover" transform="translate(-386.000000, -7.000000)" fill="#005C9C">
            <g id="top_nav">
                <g id="top_nav-Group" transform="translate(386.000000, 7.000000)">
                    <path d="M19.4870726,2 C20.9526487,6.03018796 22.6238801,9.88191741 24,14 L19.3742635,14 C18.6318706,11.5938607 17.7535043,9.32633185 17.0024483,6.90608367 C16.164761,9.23290805 15.3227421,11.5400944 14.6242299,14 L10,14 C11.4377035,9.93587442 12.9045979,5.8913869 14.505206,2 L19.4870726,2 Z" id="Fill-1"></path>
                    <path d="M43.4853408,2 C44.9513153,6.03018796 46.6179999,9.88191741 48,14 L43.3740653,14 C42.633735,11.5938607 41.7493679,9.32633185 41.0048954,6.90608367 C40.169482,9.23290805 39.3212653,11.5400944 38.6313949,14 L34,14 C35.4358492,9.93587442 36.8982463,5.8913869 38.5159772,2 L43.4853408,2 Z" id="Fill-3"></path>
                    <polygon id="Fill-5" points="0 2 0 5.5470535 3.23107073 5.5470535 3.23107073 14 7.78610221 14 7.78610221 5.5470535 7.93536065 5.5470535 11 5.5470535 11 2"></polygon>
                    <polygon id="Fill-7" points="24 2 24 5.5470535 27.2188797 5.5470535 27.2188797 14 31.7796593 14 31.7796593 5.5470535 31.9358004 5.5470535 35 5.5470535 35 2"></polygon>
                    <path d="M57.304057,7.51827028 L58.6774619,7.51827028 C60.2466998,7.51827028 61.2276467,6.73989497 61.2276467,5.55009541 C61.2276467,4.24485483 60.2466998,3.64550774 58.7277568,3.64550774 C58.000066,3.64550774 57.5309777,3.68846694 57.304057,3.75205412 L57.304057,7.51827028 Z M55,2.25302402 C55.874813,2.10351843 57.1717856,2 58.5141028,2 C60.3427352,2 61.588423,2.28406062 62.429178,2.95607879 C63.1400378,3.50054409 63.5277436,4.32774527 63.5277436,5.33397467 C63.5277436,6.87899194 62.4244258,7.91796117 61.2276467,8.33071015 L61.2276467,8.38994465 C62.1396858,8.69028056 62.679266,9.53375704 63.0067764,10.6823006 C63.3984423,12.1635415 63.7459518,13.5471305 64,14 L61.6054519,14 C61.4203115,13.6493242 61.1169585,12.6756454 60.7623207,11.1855099 C60.4007524,9.63159804 59.7960266,9.1374726 58.4776687,9.11514138 L57.304057,9.11514138 L57.304057,14 L55,14 L55,2.25302402 Z" id="Fill-9"></path>
                    <polygon id="Fill-11" points="72.4870083 8.67709327 68.1136774 8.67709327 68.1136774 12.2103757 73 12.2103757 73 14 66 14 66 2 72.7381812 2 72.7381812 3.79858859 68.1136774 3.79858859 68.1136774 6.8949075 72.4870083 6.8949075"></polygon>
                    <path d="M82.0235959,8.94125501 L81.0432917,5.98207133 C80.7985569,5.25882129 80.5973089,4.43696357 80.4097114,3.74194164 L80.3693448,3.74194164 C80.1817473,4.43696357 79.9918097,5.26625977 79.7714509,5.98207133 L78.8100624,8.94125501 L82.0235959,8.94125501 Z M78.4362324,10.6011825 L77.3621295,14 L75,14 L79.0066303,2 L81.9329173,2 L86,14 L83.550117,14 L82.4184867,10.6011825 L78.4362324,10.6011825 Z" id="Fill-13"></path>
                    <polygon id="Fill-15" points="88 2 90.1510952 2 90.1510952 12.1655832 95 12.1655832 95 14 88 14"></polygon>
                    <polygon id="Fill-17" points="97.395112 3.83003004 94 3.83003004 94 2 103 2 103 3.83003004 99.5674875 3.83003004 99.5674875 14 97.395112 14"></polygon>
                    <path d="M108.802677,14 L108.802677,8.98901728 L105,2 L107.508881,2 L108.951875,5.07681549 C109.351045,5.96732203 109.66365,6.64898199 109.994204,7.46758428 L110.023371,7.46758428 C110.33205,6.70105059 110.660734,5.95091947 111.075983,5.07681549 L112.522155,2 L115,2 L111.008862,8.94133541 L111.008862,14 L108.802677,14 Z" id="Fill-19"></path>
                    <path d="M123.605611,3.9998417 C123.605611,3.00035617 123.258461,2.1522023 122.564476,1.45538011 C121.859396,0.747793739 121.002774,0.393842257 119.994293,0.393842257 C118.993422,0.393842257 118.151383,0.74051209 117.468495,1.43353516 C116.752318,2.15948395 116.394389,3.01491947 116.394389,3.9998417 C116.394389,4.98128141 116.749782,5.82690253 117.460252,6.53607187 C118.170405,7.2455578 119.015297,7.60045906 119.994293,7.60045906 C120.714274,7.60045906 121.38353,7.39435672 122.002695,6.98215204 C122.621859,6.56994737 123.068558,6.03363805 123.342474,5.37322411 C123.51811,4.94645613 123.605611,4.488662 123.605611,3.9998417 M119.994293,0 C121.108663,0 122.058493,0.391942697 122.844099,1.17646128 C123.223904,1.55574024 123.511453,1.98630733 123.706745,2.46784598 C123.902354,2.94938462 124,3.46004986 124,3.9998417 C124,5.10886857 123.614488,6.04281926 122.844099,6.80169377 C122.032813,7.60045906 121.082983,8 119.994293,8 C118.909408,8 117.97226,7.60584115 117.183483,6.81784004 C116.394389,6.03015553 116,5.09082275 116,3.9998417 C116,3.20455895 116.227312,2.46404686 116.681937,1.77830543 C117.136879,1.09256401 117.72973,0.598045035 118.46049,0.295381693 C118.938575,0.0984605643 119.450266,0 119.994293,0" id="Fill-21"></path>
                    <path d="M119.396435,3.41828182 L119.801985,3.41828182 C120.225767,3.41828182 120.494379,3.19296752 120.494379,2.85273704 C120.494379,2.46830801 120.207536,2.30055003 119.78821,2.29603195 C119.596577,2.29603195 119.460043,2.31371137 119.396435,2.33139078 L119.396435,3.41828182 Z M119,2.06187795 C119.200547,2.02219749 119.48739,2 119.760863,2 C120.184645,2 120.457916,2.07503929 120.649549,2.24299371 C120.804112,2.37539288 120.890813,2.57890257 120.890813,2.8085385 C120.890813,3.20161079 120.635572,3.46248036 120.312063,3.56855684 L120.312063,3.58171818 C120.548871,3.6610791 120.690266,3.87323206 120.76299,4.18262179 C120.863466,4.59789157 120.936392,4.88508381 121,5 L120.590195,5 C120.539957,4.91592457 120.471488,4.65957307 120.385192,4.28869827 C120.293832,3.87775013 120.12995,3.72315348 119.769979,3.7097957 L119.396435,3.7097957 L119.396435,5 L119,5 L119,2.06187795 Z" id="Fill-23"></path>
                </g>
            </g>
        </g>
    </g>
</svg>