<?xml version="1.0" encoding="UTF-8"?>
<svg width="1111px" height="42px" viewBox="0 0 1111 42" version="1.1" xmlns="http://www.w3.org/2000/svg" xmlns:xlink="http://www.w3.org/1999/xlink">
    <title>TRIL logo</title>
    <defs>
        <filter id="filter-1">
            <feColorMatrix in="SourceGraphic" type="matrix" values="0 0 0 0 1.000000 0 0 0 0 1.000000 0 0 0 0 1.000000 0 0 0 1.000000 0"></feColorMatrix>
        </filter>
    </defs>
    <g stroke="none" stroke-width="1" fill="none" fill-rule="evenodd">
        <g id="TATA-Intellion-Website_Desktop_o2_v4" transform="translate(-165.000000, -333.000000)">
            <g id="banner">
                <g id="banner-text" transform="translate(165.500000, 333.000000)">
                    <g filter="url(#filter-1)" id="TRIL-logo">
                        <g transform="translate(0.373311, 0.000000)">
                            <path d="M67.9638886,0 C73.2534161,13.764448 79.1590958,26.9525369 84.1266892,41 L67.5588059,41 C64.904448,32.7760367 61.7874431,25.0292739 59.1181611,16.8073764 C56.1631893,24.7441931 53.0994847,32.6479569 50.6625923,41 L34.1266892,41 C39.2669757,27.1136696 44.4754867,13.3120371 50.2148693,0 L67.9638886,0 Z" id="Fill-15" fill="#1D1D1B" fill-rule="nonzero"></path>
                            <path d="M143.963695,0 C149.246931,13.764448 155.154608,26.9525369 160.126689,41 L143.590736,41 C140.939528,32.7760367 137.789619,25.0292739 135.13628,16.8073764 C132.150473,24.7441931 129.130568,32.6479569 126.656249,41 L110.126689,41 C115.271397,27.1136696 120.51201,13.3120371 126.285421,0 L143.963695,0 Z" id="Fill-17" fill="#1D1D1B" fill-rule="nonzero"></path>
                            <polygon id="Fill-19" fill="#1D1D1B" fill-rule="nonzero" points="0.126689189 0 0.126689189 12.1200685 11.556945 12.1200685 11.556945 41 27.7128562 41 27.7128562 12.1634504 28.2281209 12.1634504 28.2281209 12.1200685 39.1266892 12.1200685 39.1266892 0"></polygon>
                            <polygon id="Fill-21" fill="#1D1D1B" fill-rule="nonzero" points="77.1266892 0 77.1266892 12.1200685 88.5438781 12.1200685 88.5438781 41 104.727985 41 104.727985 12.1634504 105.24144 12.1634504 105.24144 12.1200685 116.126689 12.1200685 116.126689 0"></polygon>
                            <path d="M192.5496,18.8855986 L196.973978,18.8855986 C202.017641,18.8855986 205.182167,16.38502 205.182167,12.5182516 C205.182167,8.29249947 202.017641,6.30885756 197.174022,6.30885756 C194.782006,6.30885756 193.281676,6.50988849 192.5496,6.68835472 L192.5496,18.8855986 Z M185.126689,1.77335367 C187.897512,1.35282979 192.119718,1 196.439818,1 C202.330476,1 206.348381,1.91899853 209.085154,4.06879865 C211.345226,5.85140964 212.630615,8.57558384 212.630615,11.8331054 C212.630615,16.8342626 209.000029,20.2394803 205.182167,21.5420787 L205.182167,21.7184936 C208.118984,22.7400589 209.866177,25.4437198 210.921728,29.1853566 C212.190093,34.0265096 213.288207,38.5066274 214.126689,40 L206.416482,40 C205.805709,38.8307385 204.824642,35.6614244 203.677581,30.8571955 C202.522007,25.8211656 200.56413,24.1985588 196.299361,24.0816327 L192.5496,24.0816327 L192.5496,40 L185.126689,40 L185.126689,1.77335367 Z" id="Fill-23" fill="#1D1D1B" fill-rule="nonzero"></path>
                            <polygon id="Fill-25" fill="#1D1D1B" fill-rule="nonzero" points="240.448348 22.7261217 226.059741 22.7261217 226.059741 34.1490703 242.126689 34.1490703 242.126689 40 219.126689 40 219.126689 1 241.299394 1 241.299394 6.84473168 226.059741 6.84473168 226.059741 16.9227102 240.448348 16.9227102"></polygon>
                            <path d="M270.192469,23.5575273 L267.255235,13.9717661 C266.527753,11.5794576 265.925093,8.94957093 265.367292,6.67088675 L265.236618,6.67088675 C264.684668,8.94957093 264.121015,11.6331709 263.475448,13.9717661 L260.563569,23.5575273 L270.192469,23.5575273 Z M259.442115,28.9371226 L256.212327,40 L249.126689,40 L261.17598,1 L269.925271,1 L282.126689,40 L274.764101,40 L271.391937,28.9371226 L259.442115,28.9371226 Z" id="Fill-27" fill="#1D1D1B" fill-rule="nonzero"></path>
                            <polygon id="Fill-29" fill="#1D1D1B" fill-rule="nonzero" points="288.126689 1 295.191694 1 295.191694 34.0085819 311.126689 34.0085819 311.126689 40 288.126689 40"></polygon>
                            <polygon id="Fill-31" fill="#1D1D1B" fill-rule="nonzero" points="317.836143 6.95598051 306.126689 6.95598051 306.126689 1 337.126689 1 337.126689 6.95598051 325.302145 6.95598051 325.302145 40 317.836143 40"></polygon>
                            <path d="M355.669946,40 L355.669946,23.7413921 L343.126689,1 L351.347315,1 L356.123441,11.00927 C357.471558,13.8829325 358.485737,16.0831126 359.549389,18.73779 L359.677192,18.73779 C360.676942,16.2649115 361.792127,13.8436805 363.158796,11.00927 L367.922554,1 L376.126689,1 L362.907313,23.5595932 L362.907313,40 L355.669946,40 Z" id="Fill-33" fill="#1D1D1B" fill-rule="nonzero"></path>
                            <path d="M409.190187,23.5575273 L406.236303,13.9717661 C405.518317,11.5794576 404.90764,8.94957093 404.34769,6.67088675 L404.232578,6.67088675 C403.699942,8.94957093 403.1556,11.6331709 402.455174,13.9717661 L399.559822,23.5575273 L409.190187,23.5575273 Z M398.459431,28.9371226 L395.222645,40 L388.126689,40 L400.160744,1 L408.924845,1 L421.126689,40 L413.757587,40 L410.353011,28.9371226 L398.459431,28.9371226 Z" id="Fill-35" fill="#1D1D1B" fill-rule="nonzero"></path>
                            <path d="M428.126689,40 L428.126689,1 L436.238136,1 L446.352534,17.7007098 C448.955354,22.0576862 451.230789,26.5696048 453.044629,30.7964297 L453.148336,30.7964297 C452.698942,25.5779744 452.501697,20.5537133 452.501697,14.6018646 L452.501697,1 L459.126689,1 L459.126689,40 L451.765587,40 L441.514948,22.8365293 C439.046335,18.5890454 436.417079,13.7755059 434.497499,9.39373874 L434.304321,9.44951796 C434.601205,14.473779 434.684577,19.6302574 434.684577,26.0613942 L434.684577,40 L428.126689,40 Z" id="Fill-37" fill="#1D1D1B" fill-rule="nonzero"></path>
                            <path d="M478.168186,35.948056 C479.150627,36.1059699 480.628299,36.1059699 482.055846,36.1059699 C491.240669,36.1934628 496.668156,30.9182845 496.668156,20.7178993 C496.72229,11.7957633 491.808079,6.73184823 482.976133,6.73184823 C480.756618,6.73184823 479.150627,6.9153698 478.168186,7.13943684 L478.168186,35.948056 Z M471.126689,1.80450736 C474.228396,1.28168428 478.168186,1 482.362609,1 C489.578539,1 494.54488,2.5279238 498.081668,5.66059439 C501.82096,8.82100661 504.126689,13.6075053 504.126689,20.4788945 C504.126689,27.6447718 501.758805,33.0138448 498.081668,36.477281 C494.270197,40.107167 488.130942,42 480.628299,42 C476.536131,42 473.418384,41.7439234 471.126689,41.4622391 L471.126689,1.80450736 Z" id="Fill-39" fill="#1D1D1B" fill-rule="nonzero"></path>
                            <polygon id="Fill-41" fill="#1D1D1B" fill-rule="nonzero" points="521.126689 40 529.126689 40 529.126689 1 521.126689 1"></polygon>
                            <path d="M541.126689,40 L541.126689,1 L549.245253,1 L559.347769,17.7007098 C561.89015,22.0576862 564.188853,26.5696048 565.998168,30.7964297 L566.109854,30.7964297 C565.669202,25.5779744 565.482382,20.5537133 565.482382,14.6018646 L565.482382,1 L572.126689,1 L572.126689,40 L564.741192,40 L554.520899,22.8365293 C552.041467,18.5890454 549.403645,13.7755059 547.509042,9.39373874 L547.31816,9.44951796 C547.618698,14.473779 547.679617,19.6302574 547.679617,26.0613942 L547.679617,40 L541.126689,40 Z" id="Fill-43" fill="#1D1D1B" fill-rule="nonzero"></path>
                            <polygon id="Fill-44" fill="#1D1D1B" fill-rule="nonzero" points="581.126689 1 604.126689 1 604.126689 6.84679769 588.39855 6.84679769 588.39855 17.6168883 603.05596 17.6168883 603.05596 23.4512899 588.39855 23.4512899 588.39855 40 581.126689 40"></polygon>
                            <path d="M617.547522,18.8855986 L621.992358,18.8855986 C627.022601,18.8855986 630.166768,16.38502 630.166768,12.5182516 C630.166768,8.29249947 627.022601,6.30885756 622.1584,6.30885756 C619.789098,6.30885756 618.292585,6.50988849 617.547522,6.68835472 L617.547522,18.8855986 Z M610.126689,1.77335367 C612.898325,1.35282979 617.1239,1 621.421852,1 C627.335527,1 631.339711,1.91899853 634.070901,4.06879865 C636.318864,5.85140964 637.613146,8.57558384 637.613146,11.8331054 C637.613146,16.8342626 634.058129,20.2394803 630.166768,21.5420787 L630.166768,21.7184936 C633.125735,22.7400589 634.8926,25.4437198 635.93356,29.1853566 C637.189524,34.0265096 638.277317,38.5066274 639.126689,40 L631.397188,40 C630.813909,38.8307385 629.817653,35.6614244 628.64471,30.8571955 C627.529244,25.8211656 625.592079,24.1985588 621.3218,24.0816327 L617.547522,24.0816327 L617.547522,40 L610.126689,40 L610.126689,1.77335367 Z" id="Fill-45" fill="#1D1D1B" fill-rule="nonzero"></path>
                            <path d="M665.204272,23.5575273 L662.278837,13.9717661 C661.515256,11.5794576 660.909859,8.94957093 660.363049,6.67088675 L660.277121,6.67088675 C659.685394,8.94957093 659.136631,11.6331709 658.449213,13.9717661 L655.5726,23.5575273 L665.204272,23.5575273 Z M654.43211,28.9371226 L651.202024,40 L644.126689,40 L656.203385,1 L664.93282,1 L677.126689,40 L669.811149,40 L666.389679,28.9371226 L654.43211,28.9371226 Z" id="Fill-46" fill="#1D1D1B" fill-rule="nonzero"></path>
                            <path d="M682.648984,33.4872703 C684.962393,34.8425726 688.376569,35.9853198 691.966549,35.9853198 C696.473501,35.9853198 699.006664,33.7966328 699.006664,30.5893645 C699.006664,27.5820244 697.042863,25.8121343 692.158334,23.9770044 C685.833418,21.6094343 681.751989,18.1706704 681.751989,12.4190535 C681.751989,5.95611334 687.004106,1 695.344765,1 C699.502109,1 702.594645,1.90493789 704.582419,2.99928139 L702.872334,8.84560107 C701.513856,8.05641105 698.794901,6.95364952 695.212913,6.95364952 C690.753907,6.95364952 688.834057,9.40750436 688.834057,11.6972077 C688.834057,14.7655785 691.053571,16.2008521 696.199807,18.2569551 C702.872334,20.8665435 706.126689,24.324248 706.126689,30.0611334 C706.126689,36.4083256 701.439938,42 691.511059,42 C687.459596,42 683.230333,40.7814906 681.126689,39.48301 L682.648984,33.4872703 Z" id="Fill-47" fill="#1D1D1B" fill-rule="nonzero"></path>
                            <polygon id="Fill-48" fill="#1D1D1B" fill-rule="nonzero" points="720.842016 6.95598051 709.126689 6.95598051 709.126689 1 740.126689 1 740.126689 6.95598051 728.294124 6.95598051 728.294124 40 720.842016 40"></polygon>
                            <path d="M751.549498,18.8855986 L755.990422,18.8855986 C761.037507,18.8855986 764.185288,16.38502 764.185288,12.5182516 C764.185288,8.29249947 761.037507,6.30885756 756.177588,6.30885756 C753.789102,6.30885756 752.289652,6.50988849 751.549498,6.68835472 L751.549498,18.8855986 Z M744.126689,1.77335367 C746.93417,1.35282979 751.134757,1 755.428926,1 C761.303367,1 765.348691,1.91899853 768.045574,4.06879865 C770.325589,5.85140964 771.614478,8.57558384 771.614478,11.8331054 C771.614478,16.8342626 768.020052,20.2394803 764.185288,21.5420787 L764.185288,21.7184936 C767.073591,22.7400589 768.87293,25.4437198 769.889579,29.1853566 C771.157199,34.0265096 772.265303,38.5066274 773.126689,40 L765.378468,40 C764.808464,38.8307385 763.823719,35.6614244 762.677331,30.8571955 C761.503294,25.8211656 759.582721,24.1985588 755.301313,24.0816327 L751.549498,24.0816327 L751.549498,40 L744.126689,40 L744.126689,1.77335367 Z" id="Fill-49" fill="#1D1D1B" fill-rule="nonzero"></path>
                            <path d="M787.42117,1 L787.42117,24.5360868 C787.42117,32.4363267 790.641201,36.0625261 795.504188,36.0625261 C800.791297,36.0625261 803.896032,32.4363267 803.896032,24.5360868 L803.896032,1 L811.126689,1 L811.126689,24.0421882 C811.126689,36.4901439 804.816335,42 795.277715,42 C786.105569,42 780.126689,36.7916145 780.126689,24.110607 L780.126689,1 L787.42117,1 Z" id="Fill-50" fill="#1D1D1B" fill-rule="nonzero"></path>
                            <path d="M847.762446,40.1731944 C846.036429,41.0592372 842.261545,42 837.474643,42 C824.810981,42 817.126689,34.0656024 817.126689,21.9598583 C817.126689,8.88809609 826.234841,1 838.412156,1 C843.18664,1 846.642812,1.98285509 848.126689,2.76366716 L846.502081,8.55135773 C844.614639,7.70740722 842.019406,7.01288435 838.666712,7.01288435 C830.624386,7.01288435 824.759241,12.0765874 824.759241,21.6104923 C824.759241,30.3509573 829.887621,35.9218726 838.664642,35.9218726 C841.626188,35.9218726 844.691213,35.3346851 846.591073,34.4760023 L847.762446,40.1731944 Z" id="Fill-51" fill="#1D1D1B" fill-rule="nonzero"></path>
                            <polygon id="Fill-52" fill="#1D1D1B" fill-rule="nonzero" points="862.810567 6.95598051 851.126689 6.95598051 851.126689 1 882.126689 1 882.126689 6.95598051 870.314933 6.95598051 870.314933 40 862.810567 40"></polygon>
                            <path d="M895.393249,1 L895.393249,24.5360868 C895.393249,32.4363267 898.614806,36.0625261 903.499767,36.0625261 C908.783037,36.0625261 911.860129,32.4363267 911.860129,24.5360868 L911.860129,1 L919.126689,1 L919.126689,24.0421882 C919.126689,36.4901439 912.83836,42 903.305772,42 C894.055922,42 888.126689,36.7916145 888.126689,24.110607 L888.126689,1 L895.393249,1 Z" id="Fill-53" fill="#1D1D1B" fill-rule="nonzero"></path>
                            <path d="M935.536287,18.8855986 L939.949701,18.8855986 C945.029169,18.8855986 948.178568,16.38502 948.178568,12.5182516 C948.178568,8.29249947 945.029169,6.30885756 940.17101,6.30885756 C937.794065,6.30885756 936.259797,6.50988849 935.536287,6.68835472 L935.536287,18.8855986 Z M928.126689,1.77335367 C930.9271,1.35282979 935.108565,1 939.434731,1 C945.348365,1 949.334056,1.91899853 952.094036,4.06879865 C954.347558,5.85140964 955.611573,8.57558384 955.611573,11.8331054 C955.611573,16.8342626 952.002533,20.2394803 948.178568,21.5420787 L948.178568,21.7184936 C951.108785,22.7400589 952.883513,25.4437198 953.911324,29.1853566 C955.175339,34.0265096 956.284012,38.5066274 957.126689,40 L949.425559,40 C948.7744,38.8307385 947.846604,35.6614244 946.669836,30.8571955 C945.510091,25.8211656 943.558741,24.1985588 939.321949,24.0816327 L935.536287,24.0816327 L935.536287,40 L928.126689,40 L928.126689,1.77335367 Z" id="Fill-54" fill="#1D1D1B" fill-rule="nonzero"></path>
                            <polygon id="Fill-55" fill="#1D1D1B" fill-rule="nonzero" points="980.437636 22.7261217 966.066839 22.7261217 966.066839 34.1490703 982.126689 34.1490703 982.126689 40 959.126689 40 959.126689 1 981.276229 1 981.276229 6.84473168 966.066839 6.84473168 966.066839 16.9227102 980.437636 16.9227102"></polygon>
                            <polygon id="Fill-56" fill="#1D1D1B" fill-rule="nonzero" points="1003.12669 1 1010.19804 1 1010.19804 34.0085819 1026.12669 34.0085819 1026.12669 40 1003.12669 40"></polygon>
                            <polygon id="Fill-57" fill="#1D1D1B" fill-rule="nonzero" points="1039.79565 6.95598051 1028.12669 6.95598051 1028.12669 1 1059.12669 1 1059.12669 6.95598051 1047.3128 6.95598051 1047.3128 40 1039.79565 40"></polygon>
                            <path d="M1073.17535,35.948056 C1074.16168,36.1059699 1075.62714,36.1059699 1077.10664,36.1059699 C1086.2262,36.1934628 1091.6871,30.9182845 1091.6871,20.7178993 C1091.75928,11.7957633 1086.80958,6.73184823 1077.99474,6.73184823 C1075.74743,6.73184823 1074.16168,6.9153698 1073.17535,7.13943684 L1073.17535,35.948056 Z M1066.12669,1.80450736 C1069.21599,1.28168428 1073.17535,1 1077.34521,1 C1084.56627,1 1089.58213,2.5279238 1093.09844,5.66059439 C1096.82926,8.82100661 1099.12669,13.6075053 1099.12669,20.4788945 C1099.12669,27.6447718 1096.7631,33.0138448 1093.09844,36.477281 C1089.28342,40.107167 1083.15694,42 1075.62714,42 C1071.51543,42 1068.4141,41.7439234 1066.12669,41.4622391 L1066.12669,1.80450736 Z" id="Fill-58" fill="#1D1D1B" fill-rule="nonzero"></path>
                            <path d="M1108.12669,36.9897988 C1108.12669,34.7931425 1106.33151,33 1104.13236,33 C1101.91733,33 1100.12669,34.7931425 1100.12669,36.9897988 C1100.12669,39.2045905 1101.91733,41 1104.13236,41 C1106.33151,41 1108.12669,39.2045905 1108.12669,36.9897988" id="Fill-59" fill="#1D1D1B" fill-rule="nonzero"></path>
                        </g>
                    </g>
                </g>
            </g>
        </g>
    </g>
</svg>