<svg xmlns="http://www.w3.org/2000/svg" width="23" height="23" viewBox="0 0 23 23">
    <path fill="#7A6958" fill-rule="evenodd" d="M11.503 0C17.843 0 23 5.16 23 11.5S17.843 23 11.503 23c-2.338 0-4.508-.696-6.326-1.9l-4.42 1.413L2.19 18.24C.81 16.347 0 14.015 0 11.5 0 5.158 5.157 0 11.497 0zM7.171 5.26c-.44 0-.899.128-1.176.412-.338.345-1.176 1.15-1.176 2.8 0 1.649 1.203 3.244 1.365 3.468.17.223 2.346 3.657 5.725 5.057 2.643 1.095 3.427.993 4.028.865.879-.19 1.98-.839 2.258-1.623.277-.784.277-1.453.196-1.595-.082-.142-.305-.223-.643-.392l-.198-.099c-.554-.274-1.823-.896-2.093-.99-.304-.115-.595-.074-.824.25-.325.453-.642.913-.9 1.19-.202.217-.533.244-.81.129-.372-.156-1.413-.521-2.697-1.664-.994-.885-1.67-1.987-1.865-2.318-.197-.338-.02-.534.135-.717.169-.21.33-.358.5-.554.169-.196.263-.298.372-.528.115-.223.033-.453-.048-.622-.08-.169-.757-1.818-1.034-2.488-.223-.534-.392-.554-.73-.568-.115-.006-.243-.013-.385-.013z"/>
</svg>
