<?xml version="1.0" encoding="UTF-8"?>
<svg width="553px" height="21px" viewBox="0 0 553 21" version="1.1" xmlns="http://www.w3.org/2000/svg" xmlns:xlink="http://www.w3.org/1999/xlink">
    <!-- Generator: Sketch 64 (93537) - https://sketch.com -->
    <title>TRIL logo</title>
    <desc>Created with Sketch.</desc>
    <g id="Interim-Page" stroke="none" stroke-width="1" fill="none" fill-rule="evenodd">
        <g id="TRIL-logo" fill="#1D1D1B">
            <path d="M32.9736,0 C35.4546,6.663 38.2246,13.047 40.5546,19.847 L32.7836,19.847 C31.5386,15.866 30.0766,12.116 28.8246,8.136 C27.4386,11.978 26.0016,15.804 24.8586,19.847 L17.1026,19.847 C19.5136,13.125 21.9566,6.444 24.6486,0 L32.9736,0 Z" id="Fill-15"></path>
            <path d="M71.9267,0 C74.4057,6.663 77.1777,13.047 79.5107,19.847 L71.7517,19.847 C70.5077,15.866 69.0297,12.116 67.7847,8.136 C66.3837,11.978 64.9667,15.804 63.8057,19.847 L56.0497,19.847 C58.4637,13.125 60.9227,6.444 63.6317,0 L71.9267,0 Z" id="Fill-17"></path>
            <polygon id="Fill-19" points="-2.04281037e-13 0 -2.04281037e-13 5.867 5.568 5.867 5.568 19.847 13.438 19.847 13.438 5.888 13.689 5.888 13.689 5.867 18.998 5.867 18.998 0"></polygon>
            <polygon id="Fill-21" points="38.9511 0 38.9511 5.867 44.5101 5.867 44.5101 19.847 52.3901 19.847 52.3901 5.888 52.6401 5.888 52.6401 5.867 57.9401 5.867 57.9401 0"></polygon>
            <path d="M96.1015,9.4444 L98.1805,9.4444 C100.5505,9.4444 102.0375,8.2254 102.0375,6.3404 C102.0375,4.2804 100.5505,3.3134 98.2745,3.3134 C97.1505,3.3134 96.4455,3.4114 96.1015,3.4984 L96.1015,9.4444 Z M92.6135,1.1024 C93.9155,0.8974 95.8995,0.7254 97.9295,0.7254 C100.6975,0.7254 102.5855,1.1734 103.8715,2.2214 C104.9335,3.0904 105.5375,4.4184 105.5375,6.0064 C105.5375,8.4444 103.8315,10.1044 102.0375,10.7394 L102.0375,10.8254 C103.4175,11.3234 104.2385,12.6414 104.7345,14.4654 C105.3305,16.8254 105.8465,19.0094 106.2405,19.7374 L102.6175,19.7374 C102.3305,19.1674 101.8695,17.6224 101.3305,15.2804 C100.7875,12.8254 99.8675,12.0344 97.8635,11.9774 L96.1015,11.9774 L96.1015,19.7374 L92.6135,19.7374 L92.6135,1.1024 Z" id="Fill-23"></path>
            <polygon id="Fill-25" points="120.3515 11.374 113.0815 11.374 113.0815 16.903 121.1995 16.903 121.1995 19.735 109.5785 19.735 109.5785 0.858 120.7815 0.858 120.7815 3.687 113.0815 3.687 113.0815 8.565 120.3515 8.565"></polygon>
            <path d="M134.3652,11.7774 L132.8592,7.1374 C132.4862,5.9794 132.1772,4.7064 131.8912,3.6034 L131.8242,3.6034 C131.5412,4.7064 131.2522,6.0054 130.9212,7.1374 L129.4282,11.7774 L134.3652,11.7774 Z M128.8532,14.3814 L127.1972,19.7364 L123.5642,19.7364 L129.7422,0.8584 L134.2282,0.8584 L140.4842,19.7364 L136.7092,19.7364 L134.9802,14.3814 L128.8532,14.3814 Z" id="Fill-27"></path>
            <polygon id="Fill-29" points="143.8789 0.8584 147.3899 0.8584 147.3899 16.8354 155.3089 16.8354 155.3089 19.7354 143.8789 19.7354"></polygon>
            <polygon id="Fill-31" points="159.5937 3.7412 154.0997 3.7412 154.0997 0.8582 168.6447 0.8582 168.6447 3.7412 163.0967 3.7412 163.0967 19.7362 159.5937 19.7362"></polygon>
            <path d="M176.4424,19.7363 L176.4424,11.8663 L170.3574,0.8583 L174.3454,0.8583 L176.6624,5.7033 C177.3164,7.0943 177.8084,8.1593 178.3244,9.4443 L178.3864,9.4443 C178.8714,8.2473 179.4124,7.0753 180.0754,5.7033 L182.3864,0.8583 L186.3664,0.8583 L179.9534,11.7783 L179.9534,19.7363 L176.4424,19.7363 Z" id="Fill-33"></path>
            <path d="M205.1933,11.7774 L203.6793,7.1374 C203.3113,5.9794 202.9983,4.7064 202.7113,3.6034 L202.6523,3.6034 C202.3793,4.7064 202.1003,6.0054 201.7413,7.1374 L200.2573,11.7774 L205.1933,11.7774 Z M199.6933,14.3814 L198.0343,19.7364 L194.3973,19.7364 L200.5653,0.8584 L205.0573,0.8584 L211.3113,19.7364 L207.5343,19.7364 L205.7893,14.3814 L199.6933,14.3814 Z" id="Fill-35"></path>
            <path d="M214.7158,19.7363 L214.7158,0.8583 L218.7048,0.8583 L223.6788,8.9423 C224.9588,11.0513 226.0778,13.2353 226.9698,15.2813 L227.0208,15.2813 C226.7998,12.7553 226.7028,10.3233 226.7028,7.4423 L226.7028,0.8583 L229.9608,0.8583 L229.9608,19.7363 L226.3408,19.7363 L221.2998,11.4283 C220.0858,9.3723 218.7928,7.0423 217.8488,4.9213 L217.7538,4.9483 C217.8998,7.3803 217.9408,9.8763 217.9408,12.9893 L217.9408,19.7363 L214.7158,19.7363 Z" id="Fill-37"></path>
            <path d="M238.2397,17.1026 C238.7297,17.1766 239.4667,17.1766 240.1787,17.1766 C244.7597,17.2176 247.4667,14.7456 247.4667,9.9656 C247.4937,5.7846 245.0427,3.4116 240.6377,3.4116 C239.5307,3.4116 238.7297,3.4976 238.2397,3.6026 L238.2397,17.1026 Z M234.7277,1.1026 C236.2747,0.8576 238.2397,0.7256 240.3317,0.7256 C243.9307,0.7256 246.4077,1.4416 248.1717,2.9096 C250.0367,4.3906 251.1867,6.6336 251.1867,9.8536 C251.1867,13.2116 250.0057,15.7276 248.1717,17.3506 C246.2707,19.0516 243.2087,19.9386 239.4667,19.9386 C237.4257,19.9386 235.8707,19.8186 234.7277,19.6866 L234.7277,1.1026 Z" id="Fill-39"></path>
            <polygon id="Fill-41" points="261.5873 19.7359 265.0893 19.7359 265.0893 0.8559 261.5873 0.8559"></polygon>
            <path d="M269.8296,19.7363 L269.8296,0.8583 L273.8276,0.8583 L278.8026,8.9423 C280.0546,11.0513 281.1866,13.2353 282.0776,15.2813 L282.1326,15.2813 C281.9156,12.7553 281.8236,10.3233 281.8236,7.4423 L281.8236,0.8583 L285.0956,0.8583 L285.0956,19.7363 L281.4586,19.7363 L276.4256,11.4283 C275.2046,9.3723 273.9056,7.0423 272.9726,4.9213 L272.8786,4.9483 C273.0266,7.3803 273.0566,9.8763 273.0566,12.9893 L273.0566,19.7363 L269.8296,19.7363 Z" id="Fill-43"></path>
            <polygon id="Fill-44" points="289.8354 0.8584 300.9624 0.8584 300.9624 3.6884 293.3534 3.6884 293.3534 8.9014 300.4444 8.9014 300.4444 11.7254 293.3534 11.7254 293.3534 19.7354 289.8354 19.7354"></polygon>
            <path d="M308.5854,9.4444 L310.6734,9.4444 C313.0364,9.4444 314.5134,8.2254 314.5134,6.3404 C314.5134,4.2804 313.0364,3.3134 310.7514,3.3134 C309.6384,3.3134 308.9354,3.4114 308.5854,3.4984 L308.5854,9.4444 Z M305.0994,1.1024 C306.4014,0.8974 308.3864,0.7254 310.4054,0.7254 C313.1834,0.7254 315.0644,1.1734 316.3474,2.2214 C317.4034,3.0904 318.0114,4.4184 318.0114,6.0064 C318.0114,8.4444 316.3414,10.1044 314.5134,10.7394 L314.5134,10.8254 C315.9034,11.3234 316.7334,12.6414 317.2224,14.4654 C317.8124,16.8254 318.3234,19.0094 318.7224,19.7374 L315.0914,19.7374 C314.8174,19.1674 314.3494,17.6224 313.7984,15.2804 C313.2744,12.8254 312.3644,12.0344 310.3584,11.9774 L308.5854,11.9774 L308.5854,19.7374 L305.0994,19.7374 L305.0994,1.1024 Z" id="Fill-45"></path>
            <path d="M331.6264,11.7774 L330.1284,7.1374 C329.7374,5.9794 329.4274,4.7064 329.1474,3.6034 L329.1034,3.6034 C328.8004,4.7064 328.5194,6.0054 328.1674,7.1374 L326.6944,11.7774 L331.6264,11.7774 Z M326.1104,14.3814 L324.4564,19.7364 L320.8334,19.7364 L327.0174,0.8584 L331.4874,0.8584 L337.7314,19.7364 L333.9854,19.7364 L332.2334,14.3814 L326.1104,14.3814 Z" id="Fill-46"></path>
            <path d="M341.0425,15.9903 C342.2005,16.6343 343.9095,17.1773 345.7065,17.1773 C347.9625,17.1773 349.2305,16.1373 349.2305,14.6133 C349.2305,13.1843 348.2475,12.3433 345.8025,11.4713 C342.6365,10.3463 340.5935,8.7123 340.5935,5.9793 C340.5935,2.9083 343.2225,0.5533 347.3975,0.5533 C349.4785,0.5533 351.0265,0.9833 352.0215,1.5033 L351.1655,4.2813 C350.4855,3.9063 349.1245,3.3823 347.3315,3.3823 C345.0995,3.3823 344.1385,4.5483 344.1385,5.6363 C344.1385,7.0943 345.2495,7.7763 347.8255,8.7533 C351.1655,9.9933 352.7945,11.6363 352.7945,14.3623 C352.7945,17.3783 350.4485,20.0353 345.4785,20.0353 C343.4505,20.0353 341.3335,19.4563 340.2805,18.8393 L341.0425,15.9903 Z" id="Fill-47"></path>
            <polygon id="Fill-48" points="360.3706 3.7412 354.8746 3.7412 354.8746 0.8582 369.4176 0.8582 369.4176 3.7412 363.8666 3.7412 363.8666 19.7362 360.3706 19.7362"></polygon>
            <path d="M375.8706,9.4444 L377.9586,9.4444 C380.3316,9.4444 381.8116,8.2254 381.8116,6.3404 C381.8116,4.2804 380.3316,3.3134 378.0466,3.3134 C376.9236,3.3134 376.2186,3.4114 375.8706,3.4984 L375.8706,9.4444 Z M372.3806,1.1024 C373.7006,0.8974 375.6756,0.7254 377.6946,0.7254 C380.4566,0.7254 382.3586,1.1734 383.6266,2.2214 C384.6986,3.0904 385.3046,4.4184 385.3046,6.0064 C385.3046,8.4444 383.6146,10.1044 381.8116,10.7394 L381.8116,10.8254 C383.1696,11.3234 384.0156,12.6414 384.4936,14.4654 C385.0896,16.8254 385.6106,19.0094 386.0156,19.7374 L382.3726,19.7374 C382.1046,19.1674 381.6416,17.6224 381.1026,15.2804 C380.5506,12.8254 379.6476,12.0344 377.6346,11.9774 L375.8706,11.9774 L375.8706,19.7374 L372.3806,19.7374 L372.3806,1.1024 Z" id="Fill-49"></path>
            <path d="M392.726,0.8584 L392.726,11.8664 C392.726,15.5614 394.29,17.2574 396.652,17.2574 C399.22,17.2574 400.728,15.5614 400.728,11.8664 L400.728,0.8584 L404.24,0.8584 L404.24,11.6354 C404.24,17.4574 401.175,20.0344 396.542,20.0344 C392.087,20.0344 389.183,17.5984 389.183,11.6674 L389.183,0.8584 L392.726,0.8584 Z" id="Fill-50"></path>
            <path d="M422.769,19.167 C421.935,19.588 420.111,20.035 417.798,20.035 C411.679,20.035 407.966,16.265 407.966,10.513 C407.966,4.302 412.367,0.554 418.251,0.554 C420.558,0.554 422.228,1.021 422.945,1.392 L422.16,4.142 C421.248,3.741 419.994,3.411 418.374,3.411 C414.488,3.411 411.654,5.817 411.654,10.347 C411.654,14.5 414.132,17.147 418.373,17.147 C419.804,17.147 421.285,16.868 422.203,16.46 L422.769,19.167 Z" id="Fill-51"></path>
            <polygon id="Fill-52" points="430.7182 3.7412 425.2362 3.7412 425.2362 0.8582 439.7812 0.8582 439.7812 3.7412 434.2392 3.7412 434.2392 19.7362 430.7182 19.7362"></polygon>
            <path d="M446.2456,0.8584 L446.2456,11.8664 C446.2456,15.5614 447.8066,17.2574 450.1736,17.2574 C452.7336,17.2574 454.2246,15.5614 454.2246,11.8664 L454.2246,0.8584 L457.7456,0.8584 L457.7456,11.6354 C457.7456,17.4574 454.6986,20.0344 450.0796,20.0344 C445.5976,20.0344 442.7246,17.5984 442.7246,11.6674 L442.7246,0.8584 L446.2456,0.8584 Z" id="Fill-53"></path>
            <path d="M465.9682,9.4444 L468.0422,9.4444 C470.4292,9.4444 471.9092,8.2254 471.9092,6.3404 C471.9092,4.2804 470.4292,3.3134 468.1462,3.3134 C467.0292,3.3134 466.3082,3.4114 465.9682,3.4984 L465.9682,9.4444 Z M462.4862,1.1024 C463.8022,0.8974 465.7672,0.7254 467.8002,0.7254 C470.5792,0.7254 472.4522,1.1734 473.7492,2.2214 C474.8082,3.0904 475.4022,4.4184 475.4022,6.0064 C475.4022,8.4444 473.7062,10.1044 471.9092,10.7394 L471.9092,10.8254 C473.2862,11.3234 474.1202,12.6414 474.6032,14.4654 C475.1972,16.8254 475.7182,19.0094 476.1142,19.7374 L472.4952,19.7374 C472.1892,19.1674 471.7532,17.6224 471.2002,15.2804 C470.6552,12.8254 469.7382,12.0344 467.7472,11.9774 L465.9682,11.9774 L465.9682,19.7374 L462.4862,19.7374 L462.4862,1.1024 Z" id="Fill-54"></path>
            <polygon id="Fill-55" points="490.226 11.374 482.96 11.374 482.96 16.903 491.08 16.903 491.08 19.735 479.451 19.735 479.451 0.858 490.65 0.858 490.65 3.687 482.96 3.687 482.96 8.565 490.226 8.565"></polygon>
            <polygon id="Fill-56" points="501.4936 0.8584 505.0096 0.8584 505.0096 16.8354 512.9296 16.8354 512.9296 19.7354 501.4936 19.7354"></polygon>
            <polygon id="Fill-57" points="519.4389 3.7412 513.9639 3.7412 513.9639 0.8582 528.5089 0.8582 528.5089 3.7412 522.9659 3.7412 522.9659 19.7362 519.4389 19.7362"></polygon>
            <path d="M534.6889,17.1026 C535.1809,17.1766 535.9119,17.1766 536.6499,17.1766 C541.1989,17.2176 543.9229,14.7456 543.9229,9.9656 C543.9589,5.7846 541.4899,3.4116 537.0929,3.4116 C535.9719,3.4116 535.1809,3.4976 534.6889,3.6026 L534.6889,17.1026 Z M531.1729,1.1026 C532.7139,0.8576 534.6889,0.7256 536.7689,0.7256 C540.3709,0.7256 542.8729,1.4416 544.6269,2.9096 C546.4879,4.3906 547.6339,6.6336 547.6339,9.8536 C547.6339,13.2116 546.4549,15.7276 544.6269,17.3506 C542.7239,19.0516 539.6679,19.9386 535.9119,19.9386 C533.8609,19.9386 532.3139,19.8186 531.1729,19.6866 L531.1729,1.1026 Z" id="Fill-58"></path>
            <path d="M552.7651,17.7705 C552.7651,16.8015 551.9741,16.0105 551.0051,16.0105 C550.0291,16.0105 549.2401,16.8015 549.2401,17.7705 C549.2401,18.7475 550.0291,19.5395 551.0051,19.5395 C551.9741,19.5395 552.7651,18.7475 552.7651,17.7705" id="Fill-59"></path>
        </g>
    </g>
</svg>