<svg xmlns="http://www.w3.org/2000/svg" width="21" height="16" viewBox="0 0 21 16">
    <path fill="#cbbba0" d="M18.704 16H2.296C1.03 16 0 14.954 0 13.667V2.333C0 1.046 1.03 0 2.296 0h16.408C19.97 0 21 1.046 21 2.333v11.334C21 14.954 19.97 16 18.704 16zM2.296 1.333c-.542 0-.983.448-.983 1v11.334c0 .551.44 1 .983 1h16.408c.542 0 .983-.449.983-1V2.333c0-.552-.441-1-.983-1H2.296zm8.204 8.984c-.396 0-.79-.146-1.106-.437L2.84 3.827c-.269-.248-.288-.67-.044-.942.244-.272.658-.292.927-.045l6.554 6.053c.127.118.319.118.446 0l6.554-6.053c.268-.247.684-.227.927.045.244.272.224.694-.044.942L11.606 9.88c-.315.29-.71.437-1.106.437zm-7.219 3.016c-.168 0-.336-.065-.464-.195-.256-.26-.256-.682 0-.943L7.411 7.53c.257-.261.671-.261.928 0 .257.26.257.682 0 .942l-4.594 4.667c-.128.13-.296.195-.464.195zm14.438 0c-.168 0-.336-.065-.464-.195L12.66 8.471c-.257-.26-.257-.682 0-.942.257-.261.671-.261.928 0l4.594 4.666c.256.261.256.682 0 .943-.128.13-.296.195-.464.195z"/>
</svg>
