<?xml version="1.0" encoding="UTF-8"?>
<svg width="19px" height="17px" viewBox="0 0 19 17" version="1.1" xmlns="http://www.w3.org/2000/svg" xmlns:xlink="http://www.w3.org/1999/xlink">
    <!-- Generator: sketchtool 64 (101010) - https://sketch.com -->
    <title>4C7DFF50-0CED-4EE8-90CF-05E1AAD177CA</title>
    <desc>Created with sketchtool.</desc>
    <g id="Newsroom" stroke="none" stroke-width="1" fill="none" fill-rule="evenodd">
        <g id="Intellion_Newsroom_desktop_Innerpage" transform="translate(-143.000000, -315.000000)" fill="#CBBBA0">
            <g id="Desktop-Share" transform="translate(134.000000, 224.000000)">
                <g id="Intellion_Newsroom_desktop_Innerpage-Group">
                    <g id="Group-5" transform="translate(0.000000, 80.800000)">
                        <path d="M27.4431592,26.7023534 L23.5641802,26.7023534 L23.5641802,21.0373293 C23.5641802,19.5545169 22.9574126,18.5422421 21.6231429,18.5422421 C20.6025762,18.5422421 20.0350214,19.225347 19.7708505,19.8836868 C19.6717864,20.1199875 19.6872651,20.4491574 19.6872651,20.7783272 L19.6872651,26.7023534 L15.8444033,26.7023534 C15.8444033,26.7023534 15.8939354,16.6673152 15.8444033,15.7551328 L19.6872651,15.7551328 L19.6872651,17.4732139 C19.914287,16.7220049 21.1422692,15.649881 23.1018811,15.649881 C25.5330793,15.649881 27.4431592,17.2245307 27.4431592,20.6152901 L27.4431592,26.7023534 L27.4431592,26.7023534 Z M11.958201,14.3858273 L11.9334349,14.3858273 C10.6951336,14.3858273 9.89230156,13.5489722 9.89230156,12.488199 C9.89230156,11.4067882 10.7188677,10.5874751 11.9819351,10.5874751 C13.2439705,10.5874751 14.0199727,11.4047245 14.0447387,12.4851034 C14.0447387,13.5458766 13.2439705,14.3858273 11.958201,14.3858273 L11.958201,14.3858273 L11.958201,14.3858273 Z M10.3349943,15.7551328 L13.7558017,15.7551328 L13.7558017,26.7023534 L10.3349943,26.7023534 L10.3349943,15.7551328 L10.3349943,15.7551328 Z" id="LinkedIn"></path>
                    </g>
                </g>
            </g>
        </g>
    </g>
</svg>