<?xml version="1.0" encoding="UTF-8"?>
<svg width="20px" height="20px" viewBox="0 0 23 23" version="1.1" xmlns="http://www.w3.org/2000/svg" xmlns:xlink="http://www.w3.org/1999/xlink">
    <!-- Generator: Sketch 53.2 (72643) - https://sketchapp.com -->
    <title>Combined Shape</title>
    <desc>Created with Sketch.</desc>
    <g id="Symbols" stroke="none" stroke-width="1" fill="none" fill-rule="evenodd">
        <g id="Desktop-Share" transform="translate(-9.000000, -196.000000)" fill="#CBBBA0" fill-rule="nonzero">
            <g id="Symbols-Desktop-Share-Group">
                <g id="Group-7" transform="translate(0.000000, 184.000000)">
                    <path d="M30.144538,13.7911075 C32.5319645,16.1792507 32.5319645,20.0511867 30.1445828,22.4391955 L26.3601791,26.2243608 C23.9714087,28.6125936 20.0981289,28.6125936 17.7100304,26.2243608 C17.2788646,25.7917167 16.9247039,25.3101549 16.648937,24.7992515 L17.6568122,23.7900323 C17.9647878,23.4821016 18.367911,23.3029158 18.7990767,23.2791289 C18.972663,23.6878964 19.2245982,24.0630667 19.5479837,24.3850635 C20.2128525,25.050022 21.0947154,25.4152922 22.0354407,25.4152922 C22.9747326,25.4152922 23.8580737,25.050022 24.5222258,24.3850635 L28.3059575,20.601287 C28.9701992,19.9377621 29.3354246,19.0544658 29.3354246,18.1151739 C29.3354246,17.1744934 28.9701992,16.2925857 28.3059575,15.6290608 C27.6417606,14.9641472 26.7584643,14.5987874 25.8190828,14.5987874 C24.879791,14.5987874 23.9964947,14.9641472 23.3322978,15.6290608 L21.3984353,17.5622514 C20.6033432,17.2977284 19.7634994,17.1605169 18.8998239,17.1605169 C18.6254457,17.1605169 18.3524562,17.1731495 18.0822888,17.2025359 L21.4950612,13.7911075 C23.8831597,11.4029642 27.7557675,11.4029642 30.144538,13.7911075 Z M22.0759815,29.7730903 L22.077415,29.7732247 C22.336428,29.7732247 22.5932908,29.7605025 22.8473315,29.7368052 L19.4402035,33.143978 C17.0521498,35.5322109 13.1802139,35.5322109 10.7921154,33.143978 C8.40262821,30.754446 8.40262821,26.8826445 10.7921154,24.4944116 L14.5758471,20.7092464 C16.9639456,18.3211032 20.8372254,18.3211032 23.2253239,20.7092464 C23.6571616,21.1418009 24.012039,21.6233179 24.287806,22.1356996 L23.2813194,23.1435748 C22.9733439,23.4515056 22.5695039,23.6320801 22.1369495,23.6544783 C21.9625569,23.2457555 21.7100393,22.8705853 21.386609,22.5472446 C20.7224569,21.8837196 19.8405493,21.5183598 18.8998687,21.5183598 C17.9605769,21.5183598 17.0786693,21.8837196 16.4137556,22.5472446 L12.6300239,26.3309763 C11.9651103,26.9958003 11.5997505,27.8791414 11.5997505,28.8184781 C11.5997505,29.7578147 11.9651103,30.6410214 12.6300239,31.3045912 C13.2949824,31.9695496 14.1768452,32.3348646 15.116137,32.3348646 C16.0554289,32.3348646 16.9386804,31.9695496 17.6022053,31.3045912 L19.5493724,29.3573345 C20.3626071,29.6331014 21.2108725,29.7730903 22.0759815,29.7730903 Z" id="Combined-Shape"></path>
                </g>
            </g>
        </g>
    </g>
</svg>