<svg xmlns="http://www.w3.org/2000/svg" width="20" height="17" viewBox="0 0 20 17">
    <path fill="#CBBBA0" fill-rule="evenodd" d="M19.581 2.603c-.703.324-1.46.543-2.255.64.811-.502 1.434-1.3 1.727-2.25-.76.466-1.6.805-2.496.986-.715-.79-1.736-1.283-2.867-1.283-2.168 0-3.926 1.821-3.926 4.068 0 .319.033.628.1.926C6.6 5.52 3.707 3.902 1.769 1.438c-.339.603-.532 1.303-.532 2.048 0 1.41.693 2.656 1.748 3.386-.643-.02-1.25-.205-1.78-.508v.05c0 1.972 1.354 3.617 3.152 3.989-.33.095-.677.143-1.035.143-.253 0-.5-.024-.74-.072.5 1.616 1.95 2.792 3.67 2.824-1.345 1.092-3.04 1.742-4.879 1.742-.317 0-.63-.018-.937-.056 1.738 1.153 3.804 1.827 6.021 1.827 7.226 0 11.176-6.198 11.176-11.575 0-.177-.003-.354-.01-.527.768-.574 1.434-1.29 1.96-2.106"/>
</svg>
