<?xml version="1.0" encoding="UTF-8"?>
<svg width="16px" height="16px" viewBox="0 0 16 16" version="1.1" xmlns="http://www.w3.org/2000/svg" xmlns:xlink="http://www.w3.org/1999/xlink">
    <!-- Generator: Sketch 64 (93537) - https://sketch.com -->
    <title>Artboard</title>
    <desc>Created with Sketch.</desc>
    <g id="Artboard" stroke="none" stroke-width="1" fill="none" fill-rule="evenodd">
        <g id="Artboard-Group" fill-rule="nonzero">
            <polygon fill="#B2B2B2" points="7.78039216 8.03137255 10.5411765 5.33633657 10.5411765 6.68746104e-15 7.78039216 2.69503598"></polygon>
            <polygon fill="#DADADA" points="15.8117647 5.27058824 13.1187955 8.03137255 7.78039216 8.03137255 10.4754281 5.27058824"></polygon>
            <polygon fill="#1D1D1B" points="10.5452575 -3.90101894e-15 10.5411765 -3.90101894e-15 10.5411765 5.26242311 10.5411765 5.27058824 10.5554599 5.27058824 15.7689144 5.27058824 15.8117647 5.27058824 15.8117647 -3.90101894e-15"></polygon>
            <polygon fill="#B2B2B2" points="8.03137255 7.78039216 5.27058824 10.4754281 5.27058824 15.8117647 8.03137255 13.1187955"></polygon>
            <polygon fill="#DADADA" points="6.68746104e-15 10.5411765 2.69503598 7.78039216 8.03137255 7.78039216 5.33840332 10.5411765"></polygon>
            <polygon fill="#FFFFFF" points="5.26650725 15.8117647 5.27058824 15.8117647 5.27058824 10.5493416 5.27058824 10.5411765 5.25426431 10.5411765 0.0408098199 10.5411765 -5.5728842e-15 10.5411765 -5.5728842e-15 15.8117647"></polygon>
            <polygon fill="#7B6A58" points="8.03137255 13.3019608 13.248908 13.3019608 13.3019608 13.3019608 13.3019608 8.03137255 8.03137255 8.03137255"></polygon>
            <polygon fill="#CBBBA0" points="2.76078431 8.03137255 7.98034052 8.03137255 8.03137255 8.03137255 8.03137255 2.76078431 2.76078431 2.76078431"></polygon>
        </g>
    </g>
</svg>