<svg xmlns="http://www.w3.org/2000/svg" viewBox="0 0 276.85 85.61"><defs><style>.cls-1{fill:#00a13a;}.cls-2{fill:#b2b2b2;}.cls-3{fill:#dadada;}.cls-4{fill:#1d1d1b;}.cls-5{fill:#7b6a58;}.cls-6{fill:#cbbba0;}</style></defs><title>Asset 7</title><g id="Layer_2" data-name="Layer 2"><g id="Layer_1-2" data-name="Layer 1"><path class="cls-1" d="M214.26,70.64h6.8A5,5,0,0,1,226.38,76a5.1,5.1,0,0,1-5.32,5.26h-4.51v4.36h-2.29Zm2.29,2v6.6h4.16A3.14,3.14,0,0,0,224,76a3.11,3.11,0,0,0-3.3-3.34Z"/><path class="cls-1" d="M234.35,70.64H237l5.94,15h-2.33l-1.32-3.3h-7.46l-1.37,3.3h-2.33Zm-1.9,9.93h6.25l-3-7.64Z"/><path class="cls-1" d="M247,70.64h6.52c3.32,0,5.61,1.48,5.61,4.8a4.61,4.61,0,0,1-4.27,4.62l5.24,5.17v.38h-2.65L252,80.11h-2.73v5.5H247Zm2.29,2v5.63h4.47a2.74,2.74,0,0,0,3-2.79,2.71,2.71,0,0,0-3-2.84Z"/><path class="cls-1" d="M264.18,70.64h2.29v6.58h1.87l5.52-6.58h2.38V71l-5.95,7.24,6.56,7v.33h-2.73l-5.81-6.36h-1.84v6.36h-2.29Z"/><polygon class="cls-2" points="38.86 38.86 51.9 25.82 51.9 0 38.86 13.04 38.86 38.86"/><polygon class="cls-3" points="77.72 25.82 64.69 38.86 38.86 38.86 51.9 25.82 77.72 25.82"/><polygon class="cls-4" points="51.92 0 51.9 0 51.9 25.78 51.9 25.82 51.97 25.82 77.52 25.82 77.73 25.82 77.73 0 51.92 0"/><polygon class="cls-2" points="38.86 38.86 25.83 51.9 25.83 77.72 38.86 64.69 38.86 38.86"/><polygon class="cls-3" points="0 51.9 13.04 38.86 38.86 38.86 25.83 51.9 0 51.9"/><polygon class="cls-1" points="25.81 77.72 25.83 77.72 25.83 51.94 25.83 51.9 25.75 51.9 0.2 51.9 0 51.9 0 77.72 25.81 77.72"/><polygon class="cls-5" points="38.86 64.69 64.43 64.69 64.69 64.69 64.69 38.86 38.86 38.86 38.86 64.69"/><polygon class="cls-6" points="13.04 38.86 38.61 38.86 38.86 38.86 38.86 13.04 13.04 13.04 13.04 38.86"/><path class="cls-4" d="M91.66,64.68V26.49h6.7V64.68Zm32,0V47.39c0-4.29-2.17-5.73-5.55-5.73a9.11,9.11,0,0,0-7.1,3.73V64.68h-6V37h6v3.78a13.06,13.06,0,0,1,9.73-4.47c6,0,8.94,3.21,8.94,8.87V64.68Zm13.63-6.41v-16h-4.58V37h4.58V29.47h6V37h5.61v5.26h-5.61V56.78c0,1.89.91,3.27,2.63,3.27a3.87,3.87,0,0,0,2.69-1L150,63.6c-1.09,1-2.86,1.77-5.67,1.77C139.7,65.37,137.24,62.85,137.24,58.27Zm14-7.44c0-8,5.85-14.49,14-14.49s13.63,6.35,13.63,15.06v1.43H157.51c.46,4.18,3.61,7.62,8.82,7.62a11.72,11.72,0,0,0,7.85-3l2.75,4a16.11,16.11,0,0,1-11.23,4C157.4,65.37,151.21,59.59,151.21,50.83Zm14-9.57c-5.15,0-7.5,4-7.78,7.33H173A7.4,7.4,0,0,0,165.24,41.26Zm18.21,23.42V26.49h6V64.68Zm12.43,0V26.49h6V64.68Zm12.43,0V37h6V64.68ZM219,50.83c0-7.91,5.44-14.49,14.2-14.49s14.26,6.58,14.26,14.49-5.39,14.54-14.26,14.54S219,58.79,219,50.83Zm22.21,0c0-4.87-2.86-9.17-8-9.17s-8,4.3-8,9.17,2.86,9.22,8,9.22S241.23,55.75,241.23,50.83Zm29.61,13.85V47.39c0-4.29-2.17-5.73-5.55-5.73a9.09,9.09,0,0,0-7.1,3.73V64.68h-6V37h6v3.78a13.06,13.06,0,0,1,9.73-4.47c6,0,8.93,3.21,8.93,8.87V64.68ZM214.39,26.46h-6.25v6.26h6.25Z"/></g></g></svg>