<svg xmlns="http://www.w3.org/2000/svg" width="31" height="43" viewBox="0 0 31 43">
    <g fill="none">
        <path fill="#353D48" d="M15.5 0C6.953 0 0 6.72 0 14.979c0 2.79.8 5.514 2.314 7.877l12.304 19.16c.235.368.65.59 1.097.59h.01c.45-.003.867-.233 1.098-.606l11.99-19.347C30.245 20.34 31 17.687 31 14.98 31 6.719 24.047 0 15.5 0z"/>
        <path fill="#CABA9F" d="M16 6.936c-3.86 0-7 3.334-7 7.431 0 4.072 3.09 7.432 7 7.432 3.96 0 7-3.405 7-7.432 0-4.097-3.14-7.431-7-7.431z"/>
    </g>
</svg>
