<?xml version="1.0" encoding="UTF-8"?>
<svg width="263px" height="230px" viewBox="0 0 263 230" version="1.1" xmlns="http://www.w3.org/2000/svg" xmlns:xlink="http://www.w3.org/1999/xlink">
    <title>TATA logo</title>
    <g stroke="none" stroke-width="1" fill="none" fill-rule="evenodd">
        <g id="TATA-logo" fill="#1961AC">
            <path d="M128,1 C87.38,2 52.67,18 38.25,44.87 C51.44,42.16 65.44,39.56 80,37.5 C94.2,35.5 109.82,32.91 124.85,35.67 C128.7,49.82 126.12,66.25 126.12,82.67 L126.12,132.12 L136.12,132.12 C136.22,108.12 135.47,81.91 135.47,57.94 C135.5,49.79 134,41.24 138,35 C153.52,33.5 168.57,35.46 182.83,37.47 C197.36,39.54 211,43 224,44.32 C208.09,17.3 171.11,0 128,1" ></path>
            <path d="M111.2,70.88 C112.2,65.74 115.3,55.52 112.43,51.09 C109.56,46.66 100.7,47.64 93.77,48 C74.77,49.08 50.26,51.35 33.31,56 C30.22,77.21 37.24,91.42 47,101.8 C59.46,115.05 80.24,124.53 99.36,128.36 C104.08,110.08 107.44,91.47 111.17,70.88" ></path>
            <path d="M176.62,48 C169.99,47.58 162.44,46.67 157.3,47.37 C145.3,49.04 148.67,59.81 150.47,70.22 C154.11,91.69 158.19,110.22 162.92,128.33 C182.55,123.91 201.53,115.06 214.06,102.39 C224.06,92.11 232.56,76.47 228.35,56.03 C214.41,52.86 193.82,49.03 176.62,48.03" ></path>
            <path d="M108.68,164.83 C116.83,186.66 125.97,207.45 133.68,229.72 L108,229.72 C103.94,216.72 99.12,204.38 95,191.39 C90.41,203.96 85.76,216.39 81.9,229.72 L56.34,229.72 C64.34,207.72 72.34,185.88 81.28,164.83 L108.68,164.83" ></path>
            <path d="M237.09,164.83 C245.22,186.66 254.35,207.45 262.03,229.72 L236.46,229.72 C232.36,216.72 227.46,204.38 223.36,191.39 C218.77,203.96 214.12,216.39 210.31,229.72 L184.73,229.72 C192.73,207.72 200.78,185.88 209.65,164.83 L237.09,164.83" ></path>
            <polygon points="0 164.83 0 183.97 18.34 183.97 18.34 229.72 44.3 229.72 44.3 184.01 45.14 184.01 45.14 183.97 62.56 183.97 62.56 164.83"></polygon>
            <polygon points="128.39 164.83 128.39 183.97 146.71 183.97 146.71 229.72 172.69 229.72 172.69 184.01 173.52 184.01 173.52 183.97 190.97 183.97 190.97 164.83"></polygon>
        </g>
    </g>
</svg>