<?xml version="1.0" encoding="UTF-8"?>
<svg width="80px" height="70px" viewBox="0 0 80 70" version="1.1" xmlns="http://www.w3.org/2000/svg" xmlns:xlink="http://www.w3.org/1999/xlink">
    <!-- Generator: Sketch 64 (93537) - https://sketch.com -->
    <title>TATA logo</title>
    <desc>Created with Sketch.</desc>
    <g id="Interim-Page" stroke="none" stroke-width="1" fill="none" fill-rule="evenodd">
        <g id="TATA-logo" fill="#1D1D1B">
            <path d="M38.6973,0.0122072797 C26.4183,0.30520728 15.9263,5.16020728 11.5683,13.2762073 C15.5513,12.4422073 19.7813,11.6572073 24.1953,11.0352073 C28.4883,10.4342073 33.2093,9.64920728 37.7543,10.4822073 C38.9183,14.7562073 38.1363,19.7252073 38.1363,24.6782073 L38.1363,39.6232073 L41.1563,39.6232073 C41.1913,32.3752073 40.9593,24.4492073 40.9593,17.2022073 C40.9593,14.7502073 40.5003,12.1662073 41.7203,10.2852073 C46.4163,9.83420728 50.9613,10.4282073 55.2733,11.0352073 C59.6623,11.6512073 63.7933,12.7002073 67.7113,13.0962073 C62.9043,4.93020728 51.7223,-0.28679272 38.6973,0.0122072797" id="Fill-1"></path>
            <path d="M33.6153,21.1245073 C33.9023,19.5685073 34.8553,16.4805073 33.9883,15.1455073 C33.1153,13.7895073 30.4433,14.1005073 28.3423,14.2175073 C22.5953,14.5455073 15.1933,15.2325073 10.0703,16.6455073 C9.1353,23.0405073 11.2603,27.3335073 14.2173,30.4715073 C17.9843,34.4785073 24.2633,37.3445073 30.0453,38.5005073 C31.4693,32.9735073 32.4903,27.3505073 33.6153,21.1245073" id="Fill-3"></path>
            <path d="M53.3946,14.2173073 C51.3866,14.0923073 49.1056,13.8183073 47.5506,14.0293073 C43.9296,14.5323073 44.9416,17.7853073 45.4846,20.9363073 C46.5856,27.4243073 47.8186,33.0283073 49.2486,38.4983073 C55.1856,37.1663073 60.9236,34.4913073 64.7076,30.6573073 C67.7426,27.5533073 70.3006,22.8243073 69.0276,16.6453073 C64.8166,15.6893073 58.5916,14.5173073 53.3946,14.2173073" id="Fill-5"></path>
            <path d="M32.8535,49.5230073 C35.3145,56.1270073 38.0825,62.4090073 40.4005,69.1430073 L32.6625,69.1430073 C31.4295,65.2060073 29.9765,61.4820073 28.7165,57.5550073 C27.3305,61.3560073 25.9275,65.1220073 24.7575,69.1430073 L17.0295,69.1430073 C19.4355,62.4990073 21.8785,55.8870073 24.5705,49.5230073 L32.8535,49.5230073" id="Fill-7"></path>
            <path d="M71.67,49.5230073 C74.127,56.1270073 76.887,62.4090073 79.211,69.1430073 L71.479,69.1430073 C70.24,65.2060073 68.772,61.4820073 67.522,57.5550073 C66.133,61.3560073 64.725,65.1220073 63.574,69.1430073 L55.842,69.1430073 C58.248,62.4990073 60.693,55.8870073 63.375,49.5230073 L71.67,49.5230073" id="Fill-9"></path>
            <polygon id="Fill-11" points="1.4033219e-13 49.5230073 1.4033219e-13 55.3150073 5.547 55.3150073 5.547 69.1430073 13.391 69.1430073 13.391 55.3220073 13.645 55.3220073 13.645 55.3150073 18.912 55.3150073 18.912 49.5230073"></polygon>
            <polygon id="Fill-13" points="38.8106 49.5230073 38.8106 55.3150073 44.3476 55.3150073 44.3476 69.1430073 52.2016 69.1430073 52.2016 55.3220073 52.4536 55.3220073 52.4536 55.3150073 57.7286 55.3150073 57.7286 49.5230073"></polygon>
        </g>
    </g>
</svg>