<?xml version="1.0" encoding="UTF-8"?>
<svg width="655px" height="75px" viewBox="0 0 655 75" version="1.1" xmlns="http://www.w3.org/2000/svg" xmlns:xlink="http://www.w3.org/1999/xlink">
    <title>TATA realty</title>
    <g stroke="none" stroke-width="1" fill="none" fill-rule="evenodd">
        <g id="TATA-realty" fill="#005CA9">
            <path d="M107.473981,10 C115.424499,31.8319034 124.499126,52.693041 132,75 L106.850612,75 C102.824257,61.9669527 98.0519026,49.6774706 93.9846712,36.5721322 C89.4780153,49.1714331 84.8793868,61.6674611 81.0880731,75 L56,75 C63.7972301,52.9822053 71.7579669,31.0780108 80.4442652,10 L107.473981,10 Z" ></path>
            <path d="M233.477279,10 C241.426728,31.8319034 250.479699,52.693041 258,75 L232.874429,75 C228.848615,61.9669527 224.056467,49.6774706 220.010218,36.5721322 C215.483732,49.1714331 210.875504,61.6674611 207.135789,75 L182,75 C189.785964,52.9822053 197.725195,31.0780108 206.522721,10 L233.477279,10 Z" ></path>
            <polygon points="0 10 0 29.2087703 18.215911 29.2087703 18.215911 75 43.8870619 75 43.8870619 29.2087703 44.73144 29.2087703 44.73144 29.2087703 62 29.2087703 62 10"></polygon>
            <polygon points="127 29.2087703 145.145086 29.2087703 145.145086 75 170.844622 75 170.844622 29.2087703 171.729748 29.2087703 189 29.2087703 189 10 127 10"></polygon>
            <path d="M301,11.3283979 C307.068099,10.3892671 313.203769,9.94668061 319.344994,10.0051118 C328.90011,10.0051118 335.414961,11.5027844 339.789219,15.1341276 C343.50165,18.0781827 345.528493,22.5712005 345.528493,28.0182153 C345.528493,36.3990271 339.768537,42.0306864 333.522552,44.2669373 L333.522552,44.5849363 C338.279428,46.2159633 341.10253,50.7910454 342.829483,57.0074126 C344.89769,65.0394513 346.686689,72.5380724 348,74.989742 L335.487349,74.989742 C334.525633,73.0920061 332.943454,67.8091198 331.092409,59.736049 C329.2,51.314205 326.045985,48.6368588 319.158856,48.5137624 L313.026623,48.5137624 L313.026623,75 L301,75 L301,11.3283979 Z M313.026623,39.8662418 L320.2033,39.8662418 C328.393399,39.8662418 333.522552,35.6501908 333.522552,29.1978889 C333.522552,22.1301051 328.352035,18.8783091 320.461826,18.8783091 C317.969325,18.7816324 315.473977,18.974425 313.026623,19.4527589 L313.026623,39.8662418 Z" id="Shape" fill-rule="nonzero"></path>
            <polygon fill-rule="nonzero" points="397.100103 46.1616081 372.053664 46.1616081 372.053664 65.3114572 400 65.3114572 400 75 360 75 360 10 398.534572 10 398.534572 19.7401875 372.053664 19.7401875 372.053664 36.5040521 397.069143 36.5040521"></polygon>
            <path d="M425.13721,56.5879828 L419.471902,75 L407,75 L428.129232,10 L443.55203,10 L465,75 L452.106541,75 L446.132778,56.5879828 L425.13721,56.5879828 Z M444.055841,47.5989509 L438.914909,31.5736767 C437.629676,27.6474328 436.560362,23.204578 435.573303,19.4333174 L435.357383,19.4333174 C434.329197,23.204578 433.372984,27.6990939 432.211133,31.5736767 L427.142173,47.5989509 L444.055841,47.5989509 Z" id="Shape" fill-rule="nonzero"></path>
            <polygon fill-rule="nonzero" points="476 10 488.292376 10 488.292376 65.070736 516 65.070736 516 75 476 75"></polygon>
            <polygon fill-rule="nonzero" points="530.864431 19.8672707 512 19.8672707 512 10 562 10 562 19.8672707 542.940136 19.8672707 542.940136 75 530.864431 75"></polygon>
            <path d="M587.91419,75 L587.91419,47.8572564 L567,10 L580.798841,10 L588.736773,26.6658719 C590.937185,31.4910189 592.654328,35.1796217 594.474294,39.6121443 L594.649093,39.6121443 C596.345672,35.4792561 598.155356,31.3980289 600.438026,26.6658719 L608.396523,10 L622,10 L600.047299,47.5989509 L600.047299,75 L587.91419,75 Z"  fill-rule="nonzero"></path>
            <path d="M642.484042,0.00178795118 C645.835162,-0.0568378496 649.060198,1.3284936 651.393528,3.8289044 C652.55238,5.02268929 653.46812,6.44670998 654.086172,8.01609902 C654.693793,9.59995777 655.002978,11.2903788 654.996919,12.9954656 C655.072179,16.4202416 653.765604,19.7216167 651.393528,22.1002991 C649.063246,24.6138115 645.842504,26.0233314 642.484042,25.9994312 C639.170483,26.0322455 635.990451,24.6440646 633.69335,22.1620268 C631.297488,19.7673927 629.961073,16.4497566 630.000864,12.9954656 C629.995939,10.4269161 630.737807,7.91673821 632.129241,5.79390237 C633.453813,3.63517823 635.381017,1.9481976 637.653122,0.958567065 C639.18645,0.309888006 640.828619,-0.0153487224 642.484042,0.00178795118 L642.484042,0.00178795118 Z M653.759491,12.9954656 C653.800911,9.90490487 652.624167,6.93122007 650.502579,4.76510762 C648.406328,2.50758961 645.502392,1.25571754 642.484042,1.30835728 C639.504376,1.23308644 636.631132,2.46108276 634.5645,4.69309199 C632.396199,6.87688846 631.18339,9.88848133 631.208594,13.0263294 C631.185334,16.1275406 632.387745,19.1027841 634.534802,21.2566874 C636.602624,23.495194 639.468631,24.7461591 642.454344,24.7134377 C644.695891,24.7059837 646.881931,23.9881846 648.720682,22.6558482 C650.596631,21.4171787 652.067049,19.6164291 652.937838,17.4912986 C653.493872,16.0635232 653.773099,14.53568 653.759491,12.9954656 Z" id="Shape" fill-rule="nonzero"></path>
            <path d="M638.010163,5.30464668 C639.258244,5.09341836 640.523565,4.99163358 641.79065,5.00053723 C643.914634,5.00053723 645.286585,5.37331655 646.24187,6.21697502 C647.049981,6.94102526 647.491466,7.96883698 647.45122,9.03243991 C647.477909,10.7863957 646.295414,12.3443955 644.554878,12.848523 L644.554878,12.9171929 C645.743902,13.3194021 646.445122,14.3690702 646.810976,15.9190474 C647.084896,17.3098649 647.482715,18.6752536 648,20 L645.96748,20 C645.507556,18.8517263 645.167126,17.6621295 644.95122,16.4487864 C644.493902,14.3985002 643.670732,13.6235116 641.902439,13.5548417 L640.03252,13.5548417 L640.03252,20 L638,20 L638.010163,5.30464668 Z M640.042683,12.0833444 L642.075203,12.0833444 C644.199187,12.0833444 645.550813,10.9551964 645.550813,9.2580695 C645.550813,7.29607306 644.107724,6.50146451 642.004065,6.48184454 C641.345254,6.46315879 640.686552,6.52246047 640.042683,6.65842422 L640.042683,12.0833444 Z" id="Shape" fill-rule="nonzero"></path>
        </g>
    </g>
</svg>