<svg xmlns="http://www.w3.org/2000/svg" viewBox="0 0 262.03 228.72"><defs><style>.cls-1{fill:#1961ac;fill-rule:evenodd;}</style></defs><g id="Layer_2" data-name="Layer 2"><g id="Layer_1-2" data-name="Layer 1"><path class="cls-1" d="M128,0c-40.62,1-75.33,17-89.75,43.87C51.44,41.16,65.44,38.56,80,36.5c14.2-2,29.82-4.59,44.85-1.83,3.85,14.15,1.27,30.58,1.27,47v49.45h10c.1-24-.65-50.21-.65-74.18C135.5,48.79,134,40.24,138,34c15.52-1.5,30.57.46,44.83,2.47C197.36,38.54,211,42,224,43.32,208.09,16.3,171.11-1,128,0"/><path class="cls-1" d="M111.2,69.88c1-5.14,4.1-15.36,1.23-19.79S100.7,46.64,93.77,47c-19,1.08-43.51,3.35-60.46,8C30.22,76.21,37.24,90.42,47,100.8c12.46,13.25,33.24,22.73,52.36,26.56,4.72-18.28,8.08-36.89,11.81-57.48"/><path class="cls-1" d="M176.62,47c-6.63-.42-14.18-1.33-19.32-.63-12,1.67-8.63,12.44-6.83,22.85,3.64,21.47,7.72,40,12.45,58.11,19.63-4.42,38.61-13.27,51.14-25.94,10-10.28,18.5-25.92,14.29-46.36-13.94-3.17-34.53-7-51.73-8"/><path class="cls-1" d="M108.68,163.83c8.15,21.83,17.29,42.62,25,64.89H108c-4.06-13-8.88-25.34-13-38.33-4.59,12.57-9.24,25-13.1,38.33H56.34c8-22,16-43.84,24.94-64.89h27.4"/><path class="cls-1" d="M237.09,163.83c8.13,21.83,17.26,42.62,24.94,64.89H236.46c-4.1-13-9-25.34-13.1-38.33-4.59,12.57-9.24,25-13.05,38.33H184.73c8-22,16.05-43.84,24.92-64.89h27.44"/><polygon class="cls-1" points="0 163.83 0 182.97 18.34 182.97 18.34 228.72 44.3 228.72 44.3 183.01 45.14 183.01 45.14 182.97 62.56 182.97 62.56 163.83 0 163.83"/><polygon class="cls-1" points="128.39 163.83 128.39 182.97 146.71 182.97 146.71 228.72 172.69 228.72 172.69 183.01 173.52 183.01 173.52 182.97 190.97 182.97 190.97 163.83 128.39 163.83"/></g></g></svg>