<?xml version="1.0" encoding="UTF-8"?>
<svg id="Layer_1" data-name="Layer 1" xmlns="http://www.w3.org/2000/svg" viewBox="0 0 276.85 85.61">
  <defs>
    <style>
      .cls-1 {
        fill: #dadada;
      }

      .cls-2 {
        fill: #1d1d1b;
      }

      .cls-3 {
        fill: #00a13a;
      }

      .cls-4 {
        fill: #cbbba0;
      }

      .cls-5 {
        fill: #b2b2b2;
      }

      .cls-6 {
        fill: #7b6a58;
      }
    </style>
  </defs>
  <g>
    <path class="cls-3" d="M214.26,70.64h6.8c2.86,0,5.32,1.69,5.32,5.35,0,3.3-2.46,5.26-5.32,5.26h-4.51v4.36h-2.29v-14.96ZM216.55,72.65v6.6h4.16c1.83,0,3.3-1.23,3.3-3.26,0-2.22-1.47-3.34-3.3-3.34h-4.16Z"/>
    <path class="cls-3" d="M234.35,70.64h2.66l5.94,14.96h-2.33l-1.32-3.3h-7.46l-1.36,3.3h-2.33l6.21-14.96ZM232.45,80.57h6.25l-3.04-7.63-3.21,7.63Z"/>
    <path class="cls-3" d="M246.97,70.64h6.51c3.32,0,5.61,1.47,5.61,4.8,0,2.57-1.87,4.31-4.27,4.62l5.24,5.17v.37h-2.64l-5.43-5.5h-2.73v5.5h-2.29v-14.96ZM249.26,72.65v5.63h4.47c1.67,0,2.99-1.01,2.99-2.79,0-1.91-1.32-2.84-2.99-2.84h-4.47Z"/>
    <path class="cls-3" d="M264.18,70.64h2.29v6.58h1.87l5.52-6.58h2.38v.35l-5.94,7.24,6.56,7.04v.33h-2.73l-5.81-6.36h-1.85v6.36h-2.29v-14.96Z"/>
  </g>
  <g>
    <polygon class="cls-5" points="38.86 38.86 51.9 25.83 51.9 0 38.86 13.04 38.86 38.86"/>
    <polygon class="cls-1" points="77.73 25.83 64.69 38.86 38.86 38.86 51.9 25.83 77.73 25.83"/>
    <polygon class="cls-2" points="51.92 0 51.9 0 51.9 25.78 51.9 25.83 51.97 25.83 77.52 25.83 77.73 25.83 77.73 0 51.92 0"/>
    <polygon class="cls-5" points="38.86 38.86 25.83 51.9 25.83 77.72 38.86 64.69 38.86 38.86"/>
    <polygon class="cls-1" points="0 51.9 13.04 38.86 38.86 38.86 25.83 51.9 0 51.9"/>
    <polygon class="cls-3" points="25.81 77.72 25.83 77.72 25.83 51.94 25.83 51.9 25.75 51.9 .2 51.9 0 51.9 0 77.72 25.81 77.72"/>
    <polygon class="cls-6" points="38.86 64.69 64.43 64.69 64.69 64.69 64.69 38.86 38.86 38.86 38.86 64.69"/>
    <polygon class="cls-4" points="13.04 38.86 38.61 38.86 38.86 38.86 38.86 13.04 13.04 13.04 13.04 38.86"/>
    <path class="cls-2" d="M91.66,64.68V26.49h6.7v38.19h-6.7ZM123.61,64.68v-17.29c0-4.29-2.18-5.73-5.55-5.73-3.09,0-5.73,1.83-7.1,3.72v19.3h-6.01v-27.66h6.01v3.78c1.83-2.18,5.38-4.47,9.73-4.47,5.96,0,8.93,3.21,8.93,8.88v19.47h-6.01ZM137.24,58.27v-15.98h-4.58v-5.27h4.58v-7.56h6.01v7.56h5.61v5.27h-5.61v14.49c0,1.89.92,3.26,2.63,3.26,1.15,0,2.23-.46,2.69-.97l1.43,4.52c-1.09,1.03-2.86,1.78-5.67,1.78-4.64,0-7.1-2.52-7.1-7.1ZM151.21,50.83c0-8.02,5.84-14.49,14.03-14.49s13.63,6.36,13.63,15.06v1.43h-21.36c.46,4.18,3.61,7.62,8.82,7.62,2.69,0,5.9-1.09,7.85-3.04l2.75,3.95c-2.75,2.63-6.81,4.01-11.22,4.01-8.3,0-14.49-5.78-14.49-14.54ZM165.24,41.26c-5.15,0-7.5,3.95-7.79,7.33h15.58c-.11-3.26-2.35-7.33-7.79-7.33ZM183.45,64.68V26.49h6.01v38.19h-6.01ZM195.88,64.68V26.49h6.01v38.19h-6.01ZM208.31,64.68v-27.66h6.01v27.66h-6.01ZM219.02,50.83c0-7.9,5.44-14.49,14.2-14.49s14.26,6.59,14.26,14.49-5.38,14.54-14.26,14.54-14.2-6.59-14.2-14.54ZM241.23,50.83c0-4.87-2.86-9.16-8.02-9.16s-7.96,4.29-7.96,9.16,2.86,9.22,7.96,9.22,8.02-4.29,8.02-9.22ZM270.84,64.68v-17.29c0-4.29-2.18-5.73-5.55-5.73-3.09,0-5.73,1.83-7.1,3.72v19.3h-6.01v-27.66h6.01v3.78c1.83-2.18,5.38-4.47,9.73-4.47,5.96,0,8.93,3.21,8.93,8.88v19.47h-6.01ZM214.39,26.46h-6.25v6.25h6.25v-6.25Z"/>
  </g>
</svg>