<?xml version="1.0" encoding="UTF-8"?>
<svg width="705px" height="337px" viewBox="0 0 705 337" version="1.1" xmlns="http://www.w3.org/2000/svg" xmlns:xlink="http://www.w3.org/1999/xlink">
    <title>Group</title>
    <g id="Page-1" stroke="none" stroke-width="1" fill="none" fill-rule="evenodd">
        <g id="Ramanujan-Intellion-Park" transform="translate(-69.000000, -129.000000)">
            <g id="Ramanujan-Intellion-Park-Group" transform="translate(69.417100, 129.828700)">
                <path d="M534.16,7.449 C534.16,7.319 534.114,3.844 534.875,0.696 C531.455,1.093 526.882,1.093 526.882,1.093 C524.807,1.11 520.622,0.696 520.101,0.696 L518.694,0.696 L518.694,2.108 C519.397,1.977 520.079,1.977 520.079,1.977 C521.847,1.977 524.055,3.413 524.055,6.837 C524.055,7.048 524.093,7.621 524.093,8.482 C524.093,8.482 524.055,8.516 524.055,8.53 L524.093,79.964 C524.093,105.091 521.084,110.251 514.754,116.672 C513.869,117.556 510.965,120.001 510.26,120.214 L510.26,121.345 C510.375,121.402 513.869,119.696 515.128,118.827 C523.021,113.367 527.304,108.778 529.339,103.93 C532.269,97.011 534.16,90.97 534.16,75.199 C534.16,75.199 534.172,9.942 534.16,7.449 L534.16,7.449 Z M209.519,74.173 L209.519,74.173 C209.519,74.173 232.023,2.521 232.646,0.696 C235.033,1.049 240.422,1.133 240.422,1.133 C243.452,1.133 249.77,0.707 249.77,0.707 L249.77,2.119 C249.202,1.993 248.395,1.993 248.395,1.993 C246.619,1.993 244.561,3.506 244.701,6.894 L244.701,7.178 L251.736,86.407 C251.736,86.407 252.008,92.444 256.125,92.854 C256.125,92.854 256.96,92.854 257.503,92.714 L257.503,94.137 L255.915,94.137 C255.915,94.137 248.725,93.691 247.482,93.717 C246.218,93.717 244.244,93.631 241.335,94.113 C241.482,91.863 241.584,89.235 241.306,86.492 C240.905,82.113 234.763,11.845 234.763,11.845 L208.743,94.193 L206.031,94.193 L177.409,13.377 L170.988,87.986 C170.988,87.986 170.648,92.936 171.539,94.147 C170.035,93.737 167.518,93.737 167.518,93.737 C164.109,93.737 161.779,94.147 160.683,94.147 L159.367,94.147 L159.367,92.74 C159.923,92.854 160.603,92.854 160.603,92.854 C162.403,92.854 164.037,92.089 164.859,88.114 C165.683,82.771 171.022,21.446 171.857,6.894 L171.857,6.627 C171.857,3.329 169.799,1.993 168.141,1.993 C168.141,1.993 167.457,1.993 166.906,2.142 L166.922,0.696 L168.261,0.696 C168.868,0.696 173.835,1.133 175.889,1.133 C175.889,1.133 180.764,1.093 183.477,0.696 C185.513,6.106 209.519,74.173 209.519,74.173 L209.519,74.173 Z M508.214,0.662 C507.498,0.662 503.308,1.07 501.509,1.07 C501.509,1.07 498.731,1.07 497.779,0.662 C498.051,3.187 498.051,6.543 498.051,6.543 L498.051,14.41 L498.051,62.262 C498.097,81.998 490.582,90.467 472.877,90.467 C455.624,90.467 448.882,82.34 448.859,62.139 L448.835,7.257 C448.835,7.257 448.79,4.01 449.562,0.884 C446.146,1.282 442.512,1.093 442.512,1.093 C440.426,1.11 435.513,0.696 434.976,0.696 L433.569,0.696 L433.569,2.108 C434.251,1.977 434.924,1.977 434.924,1.977 C436.686,1.977 438.826,3.34 438.937,6.604 L438.937,6.708 L438.937,61.906 C438.937,78.365 446.12,95.326 472.877,95.326 C504.941,95.326 503.343,69.447 503.461,62.037 L503.461,7.109 L503.461,6.8 C503.66,3.305 506.365,1.938 508.152,1.938 C508.152,1.938 508.825,1.938 509.378,2.095 L509.378,0.662 L508.214,0.662 Z M576.858,20.198 C576.858,20.198 560.638,71.484 552.824,94.137 C551.313,93.971 549.03,93.782 548.027,93.782 C546.522,93.782 543.641,94.137 543.018,94.137 L541.602,94.137 L541.602,92.714 C542.237,92.839 542.843,92.854 542.843,92.854 C547.307,93.102 548.555,89.609 548.555,89.609 L577.448,0.707 L580.539,0.707 C580.539,0.707 610.676,84.267 612.049,87.148 C614.123,91.274 615.875,92.786 618.634,92.854 C618.634,92.854 619.331,92.854 619.874,92.714 L619.874,94.137 L618.45,94.137 C618.45,94.137 611.605,93.761 609.275,93.769 C608.368,93.795 606.204,93.829 603.792,94.137 C595.547,72.47 576.858,20.198 576.858,20.198 L576.858,20.198 Z M637.927,94.113 C636.962,93.717 634.209,93.717 634.209,93.717 C632.409,93.717 628.185,94.137 627.508,94.137 L626.329,94.137 L626.329,92.7 C626.857,92.854 627.554,92.854 627.554,92.854 C629.341,92.854 632.222,90.745 632.237,87.986 C632.245,83.724 632.222,0.638 632.222,0.638 L635.282,0.578 L691.917,73.894 L691.917,6.565 C691.917,2.041 691.729,1.518 691.599,0.696 C692.563,1.093 695.643,1.093 695.643,1.093 C696.856,1.093 700.798,0.696 701.468,0.696 L703.056,0.696 L703.056,2.108 C702.641,1.977 701.502,1.977 701.502,1.977 C699.302,1.977 697.265,3.34 697.265,7.109 L697.265,94.243 L694.963,94.243 L637.655,20.235 L637.655,88.373 C637.647,91.113 637.671,91.607 637.927,94.113 L637.927,94.113 Z M298.536,20.198 C298.536,20.198 282.351,71.484 274.529,94.137 C273.003,93.971 270.734,93.782 269.731,93.782 C268.216,93.782 265.331,94.137 264.72,94.137 L263.311,94.137 L263.311,92.714 C263.946,92.839 264.546,92.854 264.546,92.854 C269.018,93.102 270.252,89.609 270.252,89.609 L299.163,0.707 L302.24,0.707 C302.24,0.707 332.381,84.267 333.754,87.148 C335.802,91.274 337.576,92.786 340.343,92.854 C340.343,92.854 341.009,92.854 341.576,92.714 L341.576,94.137 L340.163,94.137 C340.163,94.137 333.295,93.761 330.979,93.769 C330.05,93.795 327.908,93.829 325.485,94.137 C317.251,72.47 298.536,20.198 298.536,20.198 L298.536,20.198 Z M110.716,20.198 C110.716,20.198 94.509,71.484 86.698,94.137 C85.171,93.971 82.898,93.782 81.877,93.782 C80.383,93.782 77.511,94.137 76.89,94.137 L75.479,94.137 L75.479,92.714 C76.103,92.839 76.713,92.854 76.713,92.854 C81.184,93.102 82.415,89.609 82.415,89.609 L111.328,0.707 L114.396,0.707 C114.396,0.707 144.544,84.267 145.926,87.148 C147.969,91.274 149.743,92.786 152.508,92.854 C152.508,92.854 153.187,92.854 153.746,92.714 L153.746,94.137 L152.335,94.137 C152.335,94.137 145.475,93.761 143.137,93.769 C142.23,93.795 140.075,93.829 137.665,94.137 C129.418,72.47 110.716,20.198 110.716,20.198 L110.716,20.198 Z M71.266,94.228 C67.716,95.583 63.67,95.326 63.67,95.326 C57.388,95.326 52.98,88.879 52.98,88.879 C52.98,88.879 30.982,52.263 27.687,46.36 C29.463,46.071 32.242,45.801 32.242,45.801 C38.952,44.556 44.32,35.933 44.32,25.504 C44.32,14.516 38.839,3.893 25.381,3.893 C20.452,3.893 17.382,4.588 15.724,5.014 C15.42,5.211 15.458,5.387 15.458,7.163 L15.458,87.986 C15.458,87.986 15.398,90.986 16.185,94.137 C12.761,93.721 9.306,93.721 9.306,93.721 C7.221,93.717 1.94,94.137 1.409,94.137 L0,94.137 L0,92.714 C0.67,92.854 1.362,92.854 1.362,92.854 C3.153,92.854 5.376,91.42 5.376,87.971 C5.376,85.305 5.399,9.446 5.376,6.812 C5.33,3.506 3.153,1.977 1.362,1.977 C1.362,1.977 0.67,1.977 0,2.108 L0,0.696 L1.702,0.696 C1.702,0.696 8.965,1.093 10.561,1.093 C12.186,1.093 20.996,0 27.154,0 C38.417,0 54.694,4.797 54.694,24.408 C54.694,34.843 47.39,43.887 39.461,46.911 C45.346,57.605 56.175,75.023 60.296,81.864 C60.296,81.864 67.42,93.691 71.266,94.228 L71.266,94.228 Z M359.207,94.113 C358.269,93.717 355.492,93.717 355.492,93.717 C353.689,93.717 349.481,94.137 348.788,94.137 L347.598,94.137 L347.598,92.7 C348.153,92.854 348.834,92.854 348.834,92.854 C350.632,92.854 353.503,90.745 353.526,87.986 C353.541,83.724 353.503,0.638 353.503,0.638 L356.586,0.578 L413.197,73.894 L413.197,6.565 C413.197,2.041 413.033,1.518 412.903,0.696 C413.845,1.093 416.951,1.093 416.951,1.093 C418.138,1.093 422.101,0.696 422.747,0.696 L424.319,0.696 L424.319,2.108 C423.911,1.977 422.793,1.977 422.793,1.977 C420.586,1.977 418.561,3.34 418.561,7.109 L418.561,94.243 L416.254,94.243 L358.951,20.235 L358.951,88.373 C358.951,91.113 358.951,91.607 359.207,94.113 L359.207,94.113 Z" id="Fill-1" fill="#422251"></path>
                <path d="M547.5224,302.8514 L547.5224,319.5394 L558.0374,319.5394 C562.6544,319.5394 566.3804,316.4234 566.3804,311.3074 C566.3804,305.6884 562.6544,302.8514 558.0374,302.8514 L547.5224,302.8514 Z M541.7354,297.7874 L558.9264,297.7874 C566.1594,297.7874 572.3894,302.0714 572.3894,311.3074 C572.3894,319.6514 566.1594,324.6044 558.9264,324.6044 L547.5224,324.6044 L547.5224,335.6194 L541.7354,335.6194 L541.7354,297.7874 Z" id="Fill-3" fill="#00A349"></path>
                <path d="M587.7382,322.8787 L603.5382,322.8787 L595.8602,303.5747 L587.7382,322.8787 Z M592.5232,297.7867 L599.2542,297.7867 L614.2752,335.6187 L608.3782,335.6187 L605.0412,327.2737 L586.1812,327.2737 L582.7322,335.6187 L576.8352,335.6187 L592.5232,297.7867 Z" id="Fill-5" fill="#00A349"></path>
                <path d="M630.2362,302.8514 L630.2362,317.0924 L641.5282,317.0924 C645.7572,317.0924 649.0952,314.5324 649.0952,310.0264 C649.0952,305.1874 645.7572,302.8514 641.5282,302.8514 L630.2362,302.8514 Z M624.4502,297.7874 L640.9172,297.7874 C649.3172,297.7874 655.1042,301.5154 655.1042,309.9154 C655.1042,316.4234 650.3742,320.8194 644.3112,321.5994 L657.5502,334.6734 L657.5502,335.6194 L650.8762,335.6194 L637.1332,321.7104 L630.2362,321.7104 L630.2362,335.6194 L624.4502,335.6194 L624.4502,297.7874 Z" id="Fill-7" fill="#00A349"></path>
                <polygon id="Fill-9" fill="#00A349" points="667.9481 297.7869 673.7351 297.7869 673.7351 314.4219 678.4641 314.4219 692.4271 297.7869 698.4351 297.7869 698.4351 298.6789 683.4151 316.9819 699.9931 334.7849 699.9931 335.6189 693.0941 335.6189 678.4081 319.5399 673.7351 319.5399 673.7351 335.6189 667.9481 335.6189"></polygon>
                <polygon id="Fill-11" fill="#9E9F9E" points="98.2616 217.4295 131.2246 184.4655 131.2246 119.1685 98.2616 152.1325"></polygon>
                <polygon id="Fill-13" fill="#CBCCCB" points="196.5219 184.4656 163.5589 217.4296 98.2619 217.4296 131.2249 184.4656"></polygon>
                <polygon id="Fill-15" fill="#1A1919" points="131.2675 119.1688 131.2255 119.1688 131.2255 184.3538 131.2255 184.4658 131.4045 184.4658 196.0055 184.4658 196.5225 184.4658 196.5225 119.1688"></polygon>
                <polygon id="Fill-17" fill="#9E9F9E" points="98.2616 217.4295 65.2986 250.3925 65.2986 315.6895 98.2616 282.7265"></polygon>
                <polygon id="Fill-19" fill="#CBCCCB" points="0.0014 250.3924 32.9644 217.4294 98.2614 217.4294 65.2984 250.3924"></polygon>
                <polygon id="Fill-21" fill="#00A349" points="65.2553 315.6893 65.2983 315.6893 65.2983 250.5043 65.2983 250.3923 65.1193 250.3923 0.5173 250.3923 0.0003 250.3923 0.0003 315.6893"></polygon>
                <polygon id="Fill-23" fill="#675E50" points="98.2616 282.7264 162.9116 282.7264 163.5586 282.7264 163.5586 217.4294 98.2616 217.4294"></polygon>
                <polygon id="Fill-25" fill="#BBAE92" points="32.9647 217.4295 97.6137 217.4295 98.2617 217.4295 98.2617 152.1325 32.9647 152.1325"></polygon>
                <path d="M526.2669,201.8863 L542.0729,201.8863 L542.0729,186.0813 L526.2669,186.0813 L526.2669,201.8863 Z M684.7979,282.7153 L684.7979,238.9913 C684.7979,228.1313 679.2969,224.5123 670.7539,224.5123 C662.9359,224.5123 656.2749,229.1463 652.8009,233.9233 L652.8009,282.7153 L637.5989,282.7153 L637.5989,212.7853 L652.8009,212.7853 L652.8009,222.3403 C657.4339,216.8383 666.4099,211.0473 677.4139,211.0473 C692.4719,211.0473 700.0009,219.1563 700.0009,233.4893 L700.0009,282.7153 L684.7979,282.7153 Z M609.9399,247.6783 C609.9399,235.3723 602.7009,224.5123 589.6709,224.5123 C576.7849,224.5123 569.5459,235.3723 569.5459,247.6783 C569.5459,260.1293 576.7849,270.9883 589.6709,270.9883 C602.7009,270.9883 609.9399,260.1293 609.9399,247.6783 L609.9399,247.6783 Z M553.7649,247.6783 C553.7649,227.6983 567.5189,211.0473 589.6709,211.0473 C612.1119,211.0473 625.7219,227.6983 625.7219,247.6783 C625.7219,267.8033 612.1119,284.4543 589.6709,284.4543 C567.5189,284.4543 553.7649,267.8033 553.7649,247.6783 L553.7649,247.6783 Z M526.6869,282.7163 L541.8899,282.7163 L541.8899,212.7853 L526.6869,212.7853 L526.6869,282.7163 Z M495.2689,282.7153 L510.4709,282.7153 L510.4709,186.1443 L495.2689,186.1443 L495.2689,282.7153 Z M463.8489,282.7153 L479.0519,282.7153 L479.0519,186.1443 L463.8489,186.1443 L463.8489,282.7153 Z M417.8049,223.4993 C404.7739,223.4993 398.8379,233.4893 398.1139,242.0313 L437.4949,242.0313 C437.2059,233.7793 431.5599,223.4993 417.8049,223.4993 L417.8049,223.4993 Z M382.3319,247.6783 C382.3319,227.4083 397.1009,211.0473 417.8049,211.0473 C438.7989,211.0473 452.2639,227.1193 452.2639,249.1253 L452.2639,252.7463 L398.2589,252.7463 C399.4169,263.3153 407.3799,272.0013 420.5559,272.0013 C427.3599,272.0013 435.4689,269.2503 440.3919,264.3293 L447.3409,274.3193 C440.3919,280.9783 430.1109,284.4543 418.9629,284.4543 C397.9699,284.4543 382.3319,269.8303 382.3319,247.6783 L382.3319,247.6783 Z M347.0049,266.5003 L347.0049,226.1053 L335.4219,226.1053 L335.4219,212.7853 L347.0049,212.7853 L347.0049,193.6733 L362.2079,193.6733 L362.2079,212.7853 L376.3959,212.7853 L376.3959,226.1053 L362.2079,226.1053 L362.2079,262.7363 C362.2079,267.5133 364.5239,270.9883 368.8679,270.9883 C371.7639,270.9883 374.5149,269.8303 375.6729,268.5273 L379.2919,279.9653 C376.5409,282.5713 372.0529,284.4543 364.9589,284.4543 C353.2299,284.4543 347.0049,278.0833 347.0049,266.5003 L347.0049,266.5003 Z M312.5439,282.7153 L312.5439,238.9913 C312.5439,228.1313 307.0419,224.5123 298.4999,224.5123 C290.6819,224.5123 284.0219,229.1463 280.5469,233.9233 L280.5469,282.7153 L265.3439,282.7153 L265.3439,212.7853 L280.5469,212.7853 L280.5469,222.3403 C285.1799,216.8383 294.1569,211.0473 305.1599,211.0473 C320.2179,211.0473 327.7469,219.1563 327.7469,233.4893 L327.7469,282.7153 L312.5439,282.7153 Z M231.7539,282.7153 L248.6939,282.7153 L248.6939,186.1443 L231.7539,186.1443 L231.7539,282.7153 Z" id="Fill-27" fill="#1A1919"></path>
            </g>
        </g>
    </g>
</svg>