<?xml version="1.0" encoding="UTF-8"?>
<svg width="375px" height="30px" viewBox="0 0 375 30" version="1.1" xmlns="http://www.w3.org/2000/svg" xmlns:xlink="http://www.w3.org/1999/xlink">
    <title>mobile</title>
    <g id="mobile" stroke="none" stroke-width="1" fill="none" fill-rule="evenodd">
        <g id="TATA-logo" transform="translate(340.000000, 5.000000)" fill="#1961AC" fill-rule="nonzero">
            <path d="M13.1639973,0.0037657775 C9.44641992,0.0952562765 6.26973082,1.55910426 4.95,4.01745397 C6.15716016,3.76951471 7.43845222,3.53163942 8.77099596,3.34316899 C10.0705922,3.16018799 11.500148,2.9232276 12.8757066,3.17574138 C13.2280619,4.47033194 12.9919381,5.97352083 12.9919381,7.47579483 L12.9919381,12 L13.9071467,12 C13.9162988,9.80422803 13.8476581,7.40626205 13.8476581,5.21323479 C13.8504038,4.46758722 13.7131225,3.68534346 14.0792059,3.11444274 C15.4996097,2.97720699 16.8769987,3.15652837 18.1820861,3.34042427 C19.5118843,3.52980961 20.7602288,3.84636673 21.95,3.96713419 C20.4939031,1.49506091 17.1094616,-0.0877247215 13.1639973,0.0037657775" ></path>
            <path d="M10.7410667,7.0146711 C10.8274373,6.56887098 11.095186,5.68247465 10.8473025,5.29825393 C10.599419,4.91403321 9.83417582,4.99903012 9.23562782,5.03025347 C7.59458713,5.12392353 5.47764464,5.32080413 4.0136636,5.72410579 C3.74677856,7.56368174 4.35309991,8.79613692 5.1960766,9.69641031 C6.27225381,10.8456032 8.06703411,11.6678182 9.71843927,12 C10.1261083,10.4145475 10.4163134,8.8004735 10.7384756,7.0146711" ></path>
            <path d="M17.374519,5.07639986 C16.800347,5.04020029 16.1465011,4.96176787 15.7013662,5.0221005 C14.6621409,5.16603691 14.95399,6.09429751 15.1098738,6.99152989 C15.4251055,8.84201781 15.7784421,10.4391087 16.1880701,12 C17.8880695,11.6190425 19.5317776,10.8562657 20.6169021,9.76424514 C21.4829232,8.87821739 22.2190411,7.53021408 21.8544463,5.76850131 C20.6472128,5.49528069 18.8640753,5.16517502 17.374519,5.07898555" ></path>
            <g id="TATA-logo-mobile-Group" transform="translate(0.950000, 15.000000)">
                <path d="M9.86132325,-1.50990331e-14 C10.6008318,1.89826087 11.4301701,3.70608696 12.1297543,5.6426087 L9.79962193,5.6426087 C9.43122873,4.51217391 8.99387524,3.43913043 8.62003781,2.30956522 C8.20355388,3.4026087 7.78162571,4.48347826 7.43137996,5.6426087 L5.11213611,5.6426087 C5.83803403,3.72956522 6.56393195,1.83043478 7.37512287,-1.50990331e-14 L9.86132325,-1.50990331e-14" ></path>
                <path d="M21.5128922,-1.50990331e-14 C22.250586,1.89826087 23.079017,3.70608696 23.775879,5.6426087 L21.4557278,5.6426087 C21.0837051,4.51217391 20.6390926,3.43913043 20.2670699,2.30956522 C19.850586,3.4026087 19.4286578,4.48347826 19.082949,5.6426087 L16.7618904,5.6426087 C17.4877883,3.72956522 18.2182231,1.83043478 19.0230624,-1.50990331e-14 L21.5128922,-1.50990331e-14" ></path>
                <polygon points="2.91940385e-14 -1.50990331e-14 2.91940385e-14 1.66434783 1.66412098 1.66434783 1.66412098 5.6426087 4.01965974 5.6426087 4.01965974 1.66782609 4.09587902 1.66782609 4.09587902 1.66434783 5.67652174 1.66434783 5.67652174 -1.50990331e-14"></polygon>
                <polygon points="11.6497543 -1.50990331e-14 11.6497543 1.66434783 13.3120605 1.66434783 13.3120605 5.6426087 15.669414 5.6426087 15.669414 1.66782609 15.7447259 1.66782609 15.7447259 1.66434783 17.3280907 1.66434783 17.3280907 -1.50990331e-14"></polygon>
            </g>
        </g>
        <g id="TATA-realty" transform="translate(10.000000, 12.000000)" fill="#005CA9" fill-rule="nonzero">
            <path d="M9.36968967,0.871810049 C10.0628238,2.77513733 10.8539589,4.59383227 11.5078927,6.53857537 L9.31534373,6.53857537 C8.96432206,5.40234121 8.5482634,4.33093181 8.19367808,3.18839524 C7.80078329,4.28681495 7.39987024,5.37623123 7.0693397,6.53857537 L4.88213628,6.53857537 C5.56190663,4.6190419 6.25593167,2.70941221 7.01321188,0.871810049 L9.36968967,0.871810049 Z" ></path>
            <path d="M20.3547838,0.871810049 C21.0478248,2.77513733 21.8370719,4.59383227 22.4926993,6.53857537 L20.3022267,6.53857537 C19.9512522,5.40234121 19.533468,4.33093181 19.1807119,3.18839524 C18.7860883,4.28681495 18.3843384,5.37623123 18.0583062,6.53857537 L15.8669429,6.53857537 C16.5457311,4.6190419 17.2378812,2.70941221 18.0048584,0.871810049 L20.3547838,0.871810049 Z" ></path>
            <polygon points="0 0.871810049 0 2.54644995 1.58808143 2.54644995 1.58808143 6.53857537 3.82611816 6.53857537 3.82611816 2.54644995 3.89973189 2.54644995 3.89973189 2.54644995 5.40522231 2.54644995 5.40522231 0.871810049"></polygon>
            <polygon points="11.0719876 2.54644995 12.6538945 2.54644995 12.6538945 6.53857537 14.8944058 6.53857537 14.8944058 2.54644995 14.971572 2.54644995 16.4772099 2.54644995 16.4772099 0.871810049 11.0719876 0.871810049"></polygon>
            <path d="M26.2414825,0.987621113 C26.7705055,0.905746746 27.3054193,0.867161611 27.8408175,0.872255701 C28.6738421,0.872255701 29.2418134,1.0028243 29.6231656,1.31940845 C29.946819,1.57607414 30.1235213,1.96777994 30.1235213,2.44265617 C30.1235213,3.17330376 29.6213625,3.66427748 29.0768312,3.85923608 L29.0768312,3.88695955 C29.4915405,4.02915412 29.7376613,4.42801438 29.8882188,4.96996352 C30.0685272,5.67020472 30.2244939,6.32394205 30.3389897,6.53768107 L29.2481242,6.53768107 C29.1642809,6.37223454 29.0263449,5.91166721 28.8649689,5.20784878 C28.6999868,4.47362396 28.4250166,4.24021023 27.8245898,4.22947856 L27.2899756,4.22947856 L27.2899756,6.53857537 L26.2414825,6.53857537 L26.2414825,0.987621113 Z M27.2899756,3.47557902 L27.9156455,3.47557902 C28.6296665,3.47557902 29.0768312,3.10801946 29.0768312,2.5455013 C29.0768312,1.9293248 28.6260604,1.64582996 27.938184,1.64582996 C27.7208853,1.63740159 27.5033383,1.65420944 27.2899756,1.69591107 L27.2899756,3.47557902 Z" id="Shape"></path>
            <polygon points="34.619586 4.02441538 32.4360123 4.02441538 32.4360123 5.69391847 34.872402 5.69391847 34.872402 6.53857537 31.3851618 6.53857537 31.3851618 0.871810049 34.7446445 0.871810049 34.7446445 1.72096938 32.4360123 1.72096938 32.4360123 3.18245995 34.6168869 3.18245995"></polygon>
            <path d="M37.0638892,4.93339721 L36.569982,6.53857537 L35.482669,6.53857537 L37.3247367,0.871810049 L38.6693117,0.871810049 L40.5391673,6.53857537 L39.4151026,6.53857537 L38.8943039,4.93339721 L37.0638892,4.93339721 Z M38.7132345,4.14972437 L38.2650428,2.75262486 C38.1529949,2.41033098 38.0597711,2.02299843 37.9737183,1.69421614 L37.9548942,1.69421614 C37.8652559,2.02299843 37.7818923,2.41483484 37.6806009,2.75262486 L37.2386839,4.14972437 L38.7132345,4.14972437 Z" id="Shape"></path>
            <polygon points="41.4981583 0.871810049 42.56982 0.871810049 42.56982 5.67293216 44.9853985 5.67293216 44.9853985 6.53857537 41.4981583 6.53857537"></polygon>
            <polygon points="46.2812946 1.73204862 44.6366745 1.73204862 44.6366745 0.871810049 48.9957248 0.871810049 48.9957248 1.73204862 47.3340667 1.73204862 47.3340667 6.53857537 46.2812946 6.53857537"></polygon>
            <path d="M51.2549499,6.53857537 L51.2549499,4.17224371 L49.4316298,0.871810049 L50.6346266,0.871810049 L51.3266635,2.32475751 C51.5184976,2.74541867 51.6681999,3.06699477 51.8268664,3.45342655 L51.8421055,3.45342655 C51.990015,3.0931172 52.147785,2.73731171 52.3467905,2.32475751 L53.0406203,0.871810049 L54.2265851,0.871810049 L52.3127265,4.14972437 L52.3127265,6.53857537 L51.2549499,6.53857537 Z" ></path>
            <path d="M56.0124044,0.000155875381 C56.3045584,-0.00495518085 56.5857203,0.115819407 56.7891424,0.333807733 C56.8901723,0.4378831 56.9700074,0.562030655 57.0238898,0.698851568 C57.0768628,0.836933966 57.1038179,0.98430657 57.1032896,1.13295775 C57.1098509,1.43153316 56.9959423,1.71935036 56.7891424,1.92672628 C56.585986,2.14585682 56.3051985,2.26874018 56.0124044,2.26665654 C55.723525,2.26951732 55.4462866,2.14849432 55.2460231,1.93210777 C55.0371494,1.72334116 54.9206394,1.43410631 54.9241084,1.13295775 C54.9236791,0.909029024 54.9883559,0.690189193 55.1096625,0.505118231 C55.22514,0.316918491 55.3931556,0.169845825 55.59124,0.08356884 C55.724917,0.0270163478 55.868083,-0.00133811704 56.0124044,0.000155875381 L56.0124044,0.000155875381 Z M56.9954094,1.13295775 C56.9990204,0.86351956 56.8964307,0.604270731 56.7114685,0.415426871 C56.5287153,0.218614182 56.2755472,0.109474717 56.0124044,0.114063902 C55.7526342,0.107501715 55.5021419,0.214559668 55.3219708,0.409148476 C55.1329361,0.599534047 55.0272022,0.86208774 55.0293995,1.13564849 C55.0273717,1.4060152 55.1321991,1.66539991 55.3193817,1.85317937 C55.4996565,2.04833462 55.7495179,2.15739502 56.0098153,2.15454233 C56.2052356,2.15389249 56.3958168,2.09131404 56.556121,1.97515961 C56.7196681,1.86717116 56.8478606,1.71018 56.9237769,1.52490899 C56.9722525,1.4004341 56.9965958,1.26723519 56.9954094,1.13295775 Z" id="Shape"></path>
            <path d="M55.6225887,0.462464428 C55.7585999,0.444049331 55.8964898,0.435175632 56.034572,0.435951861 C56.2660358,0.435951861 56.4155459,0.468451137 56.5196493,0.54200213 C56.6077142,0.605125557 56.6558256,0.694731216 56.6514397,0.787457188 C56.6543482,0.940368817 56.5254843,1.0761968 56.3358072,1.12014715 L56.3358072,1.12613386 C56.4653826,1.16119886 56.5417989,1.25270998 56.5816683,1.38783855 C56.6115191,1.50909142 56.6548719,1.62812738 56.7112437,1.7436201 L56.4897473,1.7436201 C56.4396265,1.64351244 56.4025277,1.5398022 56.3789991,1.43402173 C56.3291623,1.25527572 56.2394563,1.18771143 56.0467543,1.18172472 L55.8429776,1.18172472 L55.8429776,1.7436201 L55.6214811,1.7436201 L55.6225887,0.462464428 Z M55.8440851,1.05343811 L56.0655815,1.05343811 C56.2970453,1.05343811 56.4443405,0.955085031 56.4443405,0.807127803 C56.4443405,0.636078981 56.287078,0.566804209 56.0578292,0.565093721 C55.9860344,0.563464678 55.9142515,0.568634658 55.8440851,0.580488115 L55.8440851,1.05343811 Z" id="Shape"></path>
        </g>
    </g>
</svg>