<?xml version="1.0" encoding="UTF-8"?>
<svg width="1440px" height="50px" viewBox="0 0 1440 50" version="1.1" xmlns="http://www.w3.org/2000/svg" xmlns:xlink="http://www.w3.org/1999/xlink">
    <title>desktop</title>
    <g id="desktop" stroke="none" stroke-width="1" fill="none" fill-rule="evenodd">
        <g id="TATA-logo" transform="translate(1379.000000, 5.000000)" fill="#1961AC" fill-rule="nonzero">
            <path d="M22.2608696,0.173913043 C15.1965217,0.347826087 9.16,3.13043478 6.65217391,7.80347826 C8.94608696,7.33217391 11.3808696,6.88 13.9130435,6.52173913 C16.3826087,6.17391304 19.0991304,5.72347826 21.7130435,6.20347826 C22.3826087,8.66434783 21.933913,11.5217391 21.933913,14.3773913 L21.933913,22.9773913 L23.6730435,22.9773913 C23.6904348,18.8034783 23.56,14.2452174 23.56,10.0765217 C23.5652174,8.65913043 23.3043478,7.17217391 24,6.08695652 C26.6991304,5.82608696 29.3165217,6.16695652 31.7965217,6.51652174 C34.3234783,6.87652174 36.6956522,7.47826087 38.9565217,7.70782609 C36.1895652,3.00869565 29.7582609,1.06192832e-13 22.2608696,0.173913043" ></path>
            <path d="M19.3391304,12.3269565 C19.5130435,11.4330435 20.0521739,9.65565217 19.5530435,8.88521739 C19.053913,8.11478261 17.5130435,8.28521739 16.3078261,8.34782609 C13.0034783,8.53565217 8.74086957,8.93043478 5.79304348,9.73913043 C5.25565217,13.4278261 6.47652174,15.8991304 8.17391304,17.7043478 C10.3408696,20.0086957 13.9547826,21.6573913 17.28,22.3234783 C18.1008696,19.1443478 18.6852174,15.9078261 19.333913,12.3269565" ></path>
            <path d="M30.7165217,8.34782609 C29.5634783,8.27478261 28.2504348,8.11652174 27.3565217,8.23826087 C25.2695652,8.52869565 25.8556522,10.4017391 26.1686957,12.2121739 C26.8017391,15.946087 27.5113043,19.1686957 28.333913,22.3182609 C31.7478261,21.5495652 35.0486957,20.0104348 37.2278261,17.8069565 C38.9669565,16.0191304 40.4452174,13.2991304 39.7130435,9.74434783 C37.2886957,9.19304348 33.7078261,8.52695652 30.7165217,8.35304348" ></path>
            <g id="TATA-logo-Group" transform="translate(0.000000, 27.977391)">
                <path d="M18.9008696,-3.01980663e-14 C20.3182609,3.79652174 21.9078261,7.41217391 23.2486957,11.2852174 L18.7826087,11.2852174 C18.0765217,9.02434783 17.2382609,6.87826087 16.5217391,4.61913043 C15.7234783,6.80521739 14.9147826,8.96695652 14.2434783,11.2852174 L9.79826087,11.2852174 C11.1895652,7.45913043 12.5808696,3.66086957 14.1356522,-3.01980663e-14 L18.9008696,-3.01980663e-14" ></path>
                <path d="M41.2330435,-3.01980663e-14 C42.6469565,3.79652174 44.2347826,7.41217391 45.5704348,11.2852174 L41.1234783,11.2852174 C40.4104348,9.02434783 39.5582609,6.87826087 38.8452174,4.61913043 C38.0469565,6.80521739 37.2382609,8.96695652 36.5756522,11.2852174 L32.1269565,11.2852174 C33.5182609,7.45913043 34.9182609,3.66086957 36.4608696,-3.01980663e-14 L41.2330435,-3.01980663e-14" ></path>
                <polygon points="5.59552404e-14 -3.01980663e-14 5.59552404e-14 3.32869565 3.18956522 3.32869565 3.18956522 11.2852174 7.70434783 11.2852174 7.70434783 3.33565217 7.85043478 3.33565217 7.85043478 3.32869565 10.88 3.32869565 10.88 -3.01980663e-14"></polygon>
                <polygon points="22.3286957 -3.01980663e-14 22.3286957 3.32869565 25.5147826 3.32869565 25.5147826 11.2852174 30.0330435 11.2852174 30.0330435 3.33565217 30.1773913 3.33565217 30.1773913 3.32869565 33.2121739 3.32869565 33.2121739 -3.01980663e-14"></polygon>
            </g>
        </g>
        <g id="TATA-realty" transform="translate(15.000000, 19.000000)" fill="#005CA9" fill-rule="nonzero">
            <path d="M18.6665888,0.18086599 C20.0474723,3.97273412 21.6235964,7.59599506 22.9263837,11.4703731 L18.5583191,11.4703731 C17.8590028,9.20673186 17.0301177,7.07223655 16.3237017,4.79603946 C15.5409645,6.98434556 14.7422529,9.15471475 14.0837597,11.4703731 L9.72634458,11.4703731 C11.0806043,7.64621848 12.4632627,3.84179449 13.9719401,0.18086599 L18.6665888,0.18086599 Z" ></path>
            <path d="M40.5514369,0.18086599 C41.9321348,3.97273412 43.5044976,7.59599506 44.810659,11.4703731 L40.4467311,11.4703731 C39.7475087,9.20673186 38.9151858,7.07223655 38.2124141,4.79603946 C37.4262327,6.98434556 36.6258539,9.15471475 35.9763225,11.4703731 L31.6106199,11.4703731 C32.9629229,7.64621848 34.3418461,3.84179449 35.8698419,0.18086599 L40.5514369,0.18086599 Z" ></path>
            <polygon points="0 0.18086599 0 3.51713597 3.16382549 3.51713597 3.16382549 11.4703731 7.62251226 11.4703731 7.62251226 3.51713597 7.76916784 3.51713597 7.76916784 3.51713597 10.7684529 3.51713597 10.7684529 0.18086599"></polygon>
            <polygon points="22.05796 3.51713597 25.2094843 3.51713597 25.2094843 11.4703731 29.6731011 11.4703731 29.6731011 3.51713597 29.826834 3.51713597 32.826413 3.51713597 32.826413 0.18086599 22.05796 0.18086599"></polygon>
            <path d="M52.2791021,0.411588414 C53.3330382,0.248475739 54.3987104,0.171605227 55.4653474,0.181753832 C57.1249251,0.181753832 58.2564552,0.441876685 59.016197,1.07258553 C59.6609895,1.58392293 60.0130212,2.36429149 60.0130212,3.31035475 C60.0130212,4.76597374 59.0126048,5.74410694 57.9277726,6.13250956 L57.9277726,6.18774113 C58.7539693,6.47102561 59.244299,7.26564748 59.5442444,8.34533551 C59.9034603,9.74037794 60.2141821,11.0427739 60.4422842,11.4685914 L58.2690278,11.4685914 C58.1019925,11.1389837 57.8271921,10.221427 57.5056939,8.81925797 C57.1770114,7.35651231 56.6292071,6.89149817 55.433018,6.87011821 L54.3679428,6.87011821 L54.3679428,11.4703731 L52.2791021,11.4703731 L52.2791021,0.411588414 Z M54.3679428,5.36817597 L55.614422,5.36817597 C57.0369171,5.36817597 57.9277726,4.63591232 57.9277726,3.51524604 C57.9277726,2.28767996 57.0297328,1.72289266 55.659324,1.72289266 C55.2264147,1.7061014 54.7930108,1.73958653 54.3679428,1.82266582 L54.3679428,5.36817597 Z" id="Shape"></path>
            <polygon points="68.9702221 6.46158494 64.6200382 6.46158494 64.6200382 9.78762121 69.4738899 9.78762121 69.4738899 11.4703731 62.5265009 11.4703731 62.5265009 0.18086599 69.2193674 0.18086599 69.2193674 1.87258777 64.6200382 1.87258777 64.6200382 4.78421498 68.9648448 4.78421498"></polygon>
            <path d="M73.8398393,8.27248696 L72.8558618,11.4703731 L70.6896829,11.4703731 L74.3595078,0.18086599 L77.0382122,0.18086599 L80.763397,11.4703731 L78.5240001,11.4703731 L77.4864487,8.27248696 L73.8398393,8.27248696 Z M77.1257165,6.71122943 L76.2328151,3.92788409 C76.0095898,3.2459555 75.8238663,2.47429948 75.6524292,1.81928913 L75.6149272,1.81928913 C75.436347,2.47429948 75.2702674,3.25492824 75.0684716,3.92788409 L74.1880707,6.71122943 L77.1257165,6.71122943 Z" id="Shape"></path>
            <polygon points="82.673929 0.18086599 84.8089269 0.18086599 84.8089269 9.74581161 89.6213179 9.74581161 89.6213179 11.4703731 82.673929 11.4703731"></polygon>
            <polygon points="92.2030425 1.89466019 88.926579 1.89466019 88.926579 0.18086599 97.6108153 0.18086599 97.6108153 1.89466019 94.300408 1.89466019 94.300408 11.4703731 92.2030425 11.4703731"></polygon>
            <path d="M102.111714,11.4703731 L102.111714,6.75609315 L98.4792389,0.18086599 L100.875887,0.18086599 L102.254584,3.07547336 C102.636762,3.91352769 102.935004,4.55418165 103.251104,5.32404312 L103.281464,5.32404312 C103.576134,4.60622357 103.890448,3.89737675 104.286913,3.07547336 L105.669183,0.18086599 L108.031899,0.18086599 L104.21905,6.71122943 L104.21905,11.4703731 L102.111714,11.4703731 Z" ></path>
            <path d="M111.589664,0.000310539808 C112.171702,-0.00987186626 112.731842,0.230739045 113.137106,0.665022207 C113.33838,0.872364407 113.497431,1.11969505 113.604777,1.39227395 C113.710311,1.66736602 113.764012,1.96096633 113.76296,2.25711386 C113.776031,2.85194514 113.549099,3.42534357 113.137106,3.83848436 C112.732371,4.27504307 112.172978,4.51985515 111.589664,4.51570405 C111.014149,4.52140339 110.461826,4.28029758 110.062855,3.84920552 C109.64673,3.43329416 109.414616,2.85707145 109.421527,2.25711386 C109.420671,1.81099605 109.549522,1.3750165 109.791193,1.00631234 C110.021251,0.63137493 110.355977,0.338372164 110.750607,0.166488457 C111.016923,0.053822813 111.302142,-0.00266583862 111.589664,0.000310539808 L111.589664,0.000310539808 Z M113.548037,2.25711386 C113.555231,1.72033068 113.350849,1.20384705 112.982361,0.827626405 C112.618275,0.435530011 112.113905,0.218098955 111.589664,0.227241674 C111.072141,0.214168279 110.573103,0.427452482 110.21416,0.81511839 C109.83756,1.19441048 109.626913,1.71747816 109.631291,2.26247444 C109.627251,2.80110745 109.836091,3.3178618 110.209002,3.6919619 C110.568151,4.0807563 111.065933,4.29802983 111.584506,4.29234662 C111.973828,4.29105198 112.35351,4.16638124 112.672873,3.93497476 C112.998697,3.71983679 113.254086,3.40707409 113.405329,3.03797138 C113.501903,2.7899886 113.550401,2.52462558 113.548037,2.25711386 Z" id="Shape"></path>
            <path d="M110.81262,0.921336098 C111.029392,0.884648966 111.249159,0.866970504 111.469232,0.868516932 C111.838136,0.868516932 112.076423,0.933263006 112.242341,1.07979359 C112.382698,1.20555006 112.459377,1.38406526 112.452387,1.56879684 C112.457022,1.87343217 112.251641,2.14403293 111.949337,2.23159218 L111.949337,2.24351909 C112.155852,2.31337669 112.277643,2.495688 112.341186,2.76489537 C112.388762,3.00645912 112.457857,3.24360628 112.547702,3.47369449 L112.194684,3.47369449 C112.114802,3.27425689 112.055675,3.0676421 112.018175,2.85690294 C111.938746,2.50079954 111.795774,2.36619586 111.488648,2.35426895 L111.163872,2.35426895 L111.163872,3.47369449 L110.810854,3.47369449 L110.81262,0.921336098 Z M111.165637,2.09869235 L111.518655,2.09869235 C111.887558,2.09869235 112.122315,1.90275027 112.122315,1.60798525 C112.122315,1.26721644 111.871673,1.12920507 111.506299,1.12579738 C111.391874,1.12255196 111.277467,1.13285175 111.165637,1.15646658 L111.165637,2.09869235 Z" id="Shape"></path>
        </g>
    </g>
</svg>