<?xml version="1.0" encoding="UTF-8"?>
<svg id="Layer_1" xmlns="http://www.w3.org/2000/svg" version="1.1" viewBox="0 0 1720 37.3">
  <!-- Generator: Adobe Illustrator 30.2.1, SVG Export Plug-In . SVG Version: 2.1.1 Build 1)  -->
  <defs>
    <style>
      .st0 {
        fill-rule: evenodd;
      }

      .st0, .st1 {
        fill: #1068b2;
      }

      .st2 {
        fill: #fff;
      }
    </style>
  </defs>
  <rect class="st2" x="0" width="1720" height="37.3"/>
  <g>
    <path class="st0" d="M1648.2,0c-6.6.2-12.3,2.8-14.6,7.1,2.2-.4,4.4-.9,6.8-1.2,2.3-.3,4.9-.8,7.3-.3.6,2.3.2,5,.2,7.6v8h1.6c0-3.9-.1-8.2-.1-12.1s-.2-2.7.4-3.7c2.5-.2,5,0,7.3.4,2.4.3,4.6.9,6.7,1.1-2.6-4.4-8.6-7.2-15.6-7.1"/>
    <path class="st0" d="M1645.4,11.4c.2-.8.7-2.5.2-3.2-.5-.7-1.9-.6-3-.5-3.1.2-7.1.6-9.8,1.3-.5,3.4.6,5.8,2.2,7.4,2,2.2,5.4,3.7,8.5,4.3.8-3,1.3-6,1.9-9.4"/>
    <path class="st0" d="M1656.1,7.7c-1.1,0-2.3-.2-3.2,0-1.9.3-1.4,2-1.1,3.7.6,3.5,1.3,6.5,2,9.5,3.2-.7,6.3-2.2,8.3-4.2,1.6-1.7,3-4.2,2.3-7.6-2.3-.5-5.6-1.2-8.4-1.3"/>
    <path class="st0" d="M1645,26.7c1.3,3.6,2.8,6.9,4.1,10.6h-4.2c-.7-2.1-1.4-4.1-2.1-6.2-.8,2.1-1.5,4.1-2.1,6.2h-4.2c1.3-3.6,2.6-7.1,4.1-10.6h4.5"/>
    <path class="st0" d="M1665.9,26.7c1.3,3.6,2.8,6.9,4.1,10.6h-4.2c-.7-2.1-1.5-4.1-2.1-6.2-.8,2.1-1.5,4.1-2.1,6.2h-4.2c1.3-3.6,2.6-7.1,4.1-10.6h4.5"/>
    <polygon class="st0" points="1627.3 26.7 1627.3 29.8 1630.3 29.8 1630.3 37.3 1634.6 37.3 1634.6 29.8 1634.7 29.8 1634.7 29.8 1637.5 29.8 1637.5 26.7 1627.3 26.7"/>
    <polygon class="st0" points="1648.2 26.7 1648.2 29.8 1651.2 29.8 1651.2 37.3 1655.4 37.3 1655.4 29.8 1655.6 29.8 1655.6 29.8 1658.4 29.8 1658.4 26.7 1648.2 26.7"/>
  </g>
  <g>
    <path class="st0" d="M83.5,8.5c2.5,6.8,5.3,13.2,7.7,20.1h-7.9c-1.3-4-2.8-7.8-4-11.9-1.4,3.9-2.9,7.8-4,11.9h-7.9c2.5-6.8,4.9-13.6,7.7-20.1h8.5Z"/>
    <path class="st0" d="M123,8.5c2.5,6.8,5.3,13.2,7.7,20.1h-7.9c-1.3-4-2.8-7.8-4-11.9-1.4,3.9-2.9,7.8-4,11.9h-7.9c2.5-6.8,4.9-13.6,7.7-20.1h8.4Z"/>
    <polygon class="st0" points="50 8.5 50 14.4 55.7 14.4 55.7 28.6 63.6 28.6 63.6 14.4 63.9 14.4 63.9 14.4 69.3 14.4 69.3 8.5 50 8.5"/>
    <polygon class="st0" points="89.5 8.5 89.5 14.4 95.2 14.4 95.2 28.6 103.2 28.6 103.2 14.4 103.4 14.4 103.4 14.4 108.8 14.4 108.8 8.5 89.5 8.5"/>
    <path class="st1" d="M144,9.6c1.3-.2,3.3-.4,5.4-.4s4.7.4,6,1.5c1.1.9,1.7,2.2,1.7,3.8,0,2.5-1.7,4.2-3.6,4.8h0c1.4.6,2.2,1.9,2.7,3.8.6,2.4,1.1,4.6,1.5,5.4h-3.7c-.3-.6-.8-2.1-1.3-4.5-.6-2.5-1.5-3.3-3.5-3.4h-1.8v7.9h-3.5V9.6h0ZM147.5,18.1h2.1c2.4,0,3.9-1.2,3.9-3.1s-1.5-3.1-3.8-3.1-1.9.1-2.2.2v6h0Z"/>
    <polygon class="st1" points="172.1 20 164.8 20 164.8 25.6 173 25.6 173 28.5 161.2 28.5 161.2 9.4 172.6 9.4 172.6 12.2 164.8 12.2 164.8 17.2 172.1 17.2 172.1 20"/>
    <path class="st1" d="M180.8,23.1l-1.7,5.4h-3.7l6.3-19.2h4.6l6.4,19.2h-3.8l-1.8-5.4h-6.2ZM186.4,20.4l-1.5-4.7c-.4-1.2-.7-2.5-1-3.6h0c-.3,1.1-.6,2.4-.9,3.6l-1.5,4.7h5Z"/>
    <polygon class="st1" points="196 9.4 199.6 9.4 199.6 25.6 207.6 25.6 207.6 28.5 196 28.5 196 9.4"/>
    <polygon class="st1" points="211.9 12.3 206.4 12.3 206.4 9.4 221.1 9.4 221.1 12.3 215.5 12.3 215.5 28.5 211.9 28.5 211.9 12.3"/>
    <path class="st1" d="M229.1,28.5v-8l-6.2-11.2h4.1l2.4,4.9c.7,1.4,1.2,2.5,1.7,3.8h0c.5-1.2,1-2.4,1.7-3.8l2.3-4.9h4l-6.5,11.1v8.1h-3.6Z"/>
    <path class="st1" d="M252.6,23.1l-1.7,5.4h-3.7l6.3-19.2h4.6l6.4,19.2h-3.8l-1.8-5.4h-6.2ZM258.2,20.4l-1.5-4.7c-.4-1.2-.7-2.5-1-3.6h0c-.3,1.1-.6,2.4-.9,3.6l-1.5,4.7h5,0Z"/>
    <path class="st1" d="M267.9,28.5V9.4h4.1l5.1,8.2c1.3,2.1,2.4,4.4,3.3,6.4h0c-.2-2.6-.3-5-.3-8v-6.7h3.3v19.2h-3.7l-5.1-8.4c-1.2-2.1-2.6-4.4-3.5-6.6h-.1c.1,2.5.2,5,.2,8.2v6.8s-3.3,0-3.3,0Z"/>
    <path class="st1" d="M288.2,9.6c1.6-.2,3.6-.4,5.7-.4,3.6,0,6.2.7,8,2.2,1.9,1.5,3.1,3.8,3.1,7s-1.2,6-3.1,7.6c-1.9,1.7-5,2.6-8.8,2.6s-3.6-.1-4.8-.3V9.6h0ZM291.8,25.8c.5,0,1.2,0,2,0,4.6,0,7.4-2.5,7.4-7.3,0-4.2-2.5-6.6-6.9-6.6s-1.9,0-2.4.2v13.7Z"/>
    <rect class="st1" x="315.5" y="9.4" width="3.5" height="19.2"/>
    <path class="st1" d="M323.8,28.5V9.4h4.1l5,8.2c1.3,2.1,2.4,4.4,3.3,6.4h0c-.2-2.6-.3-5-.3-8v-6.7h3.3v19.2h-3.7l-5.1-8.4c-1.2-2.1-2.6-4.4-3.5-6.6h0c.1,2.5.2,5,.2,8.2v6.8s-3.3,0-3.3,0Z"/>
    <polygon class="st1" points="344.1 9.4 355.4 9.4 355.4 12.2 347.7 12.2 347.7 17.5 354.9 17.5 354.9 20.4 347.7 20.4 347.7 28.5 344.1 28.5 344.1 9.4"/>
    <path class="st1" d="M359.6,9.6c1.3-.2,3.3-.4,5.4-.4s4.7.4,6,1.5c1.1.9,1.7,2.2,1.7,3.8,0,2.5-1.7,4.2-3.5,4.8h0c1.4.6,2.2,1.9,2.8,3.8.6,2.4,1.1,4.6,1.5,5.4h-3.7c-.3-.6-.8-2.1-1.3-4.5-.5-2.5-1.5-3.3-3.5-3.4h-1.8v7.9h-3.5V9.6h0ZM363.1,18.1h2.1c2.4,0,3.9-1.2,3.9-3.1s-1.5-3.1-3.8-3.1-1.8.1-2.2.2v6h0Z"/>
    <path class="st1" d="M380.9,23.1l-1.7,5.4h-3.7l6.3-19.2h4.5l6.3,19.2h-3.8l-1.8-5.4h-6.2ZM386.5,20.4l-1.5-4.7c-.4-1.2-.7-2.5-1-3.6h0c-.3,1.1-.6,2.4-1,3.6l-1.5,4.7h5Z"/>
    <path class="st1" d="M396.1,24.7c1.2.6,2.9,1.2,4.7,1.2s3.6-1,3.6-2.6-1-2.3-3.5-3.2c-3.2-1.1-5.3-2.8-5.3-5.6s2.7-5.5,6.9-5.5,3.7.4,4.7,1l-.9,2.8c-.7-.4-2.1-.9-3.9-.9s-3.2,1.2-3.2,2.3,1.1,2.2,3.7,3.2c3.4,1.3,5,2.9,5,5.7s-2.4,5.8-7.4,5.8-4.2-.6-5.3-1.2l.8-2.9h0Z"/>
    <polygon class="st1" points="415.7 12.3 410.1 12.3 410.1 9.4 424.9 9.4 424.9 12.3 419.2 12.3 419.2 28.5 415.7 28.5 415.7 12.3"/>
    <path class="st1" d="M427.9,9.6c1.3-.2,3.3-.4,5.4-.4s4.7.4,6,1.5c1.1.9,1.7,2.2,1.7,3.8,0,2.5-1.7,4.2-3.5,4.8h0c1.4.6,2.2,1.9,2.7,3.8.6,2.4,1.1,4.6,1.5,5.4h-3.7c-.3-.6-.7-2.1-1.3-4.5-.6-2.5-1.5-3.3-3.5-3.4h-1.8v7.9h-3.5V9.6ZM431.4,18.1h2.1c2.4,0,3.9-1.2,3.9-3.1s-1.5-3.1-3.8-3.1-1.9.1-2.2.2v6h0Z"/>
    <path class="st1" d="M448.5,9.4v11.2c0,3.8,1.6,5.5,4,5.5s4.1-1.7,4.1-5.5v-11.2h3.6v10.9c0,5.9-3.1,8.5-7.8,8.5s-7.5-2.5-7.5-8.5v-11h3.6,0Z"/>
    <path class="st1" d="M479,27.9c-.9.4-2.7.9-5,.9-6.2,0-10-3.8-10-9.7s4.5-10.1,10.4-10.1,4,.5,4.8.9l-.8,2.8c-.9-.4-2.2-.7-3.8-.7-4,0-6.8,2.4-6.8,7s2.5,6.9,6.8,6.9,3-.3,3.9-.7l.6,2.8h0Z"/>
    <polygon class="st1" points="487.1 12.3 481.5 12.3 481.5 9.4 496.3 9.4 496.3 12.3 490.7 12.3 490.7 28.5 487.1 28.5 487.1 12.3"/>
    <path class="st1" d="M502.8,9.4v11.2c0,3.8,1.6,5.5,4,5.5s4.1-1.7,4.1-5.5v-11.2h3.6v10.9c0,5.9-3.1,8.5-7.8,8.5s-7.5-2.5-7.5-8.5v-11h3.6Z"/>
    <path class="st1" d="M519.3,9.6c1.3-.2,3.3-.4,5.4-.4s4.7.4,6,1.5c1.1.9,1.7,2.2,1.7,3.8,0,2.5-1.7,4.2-3.5,4.8h0c1.4.6,2.2,1.9,2.7,3.8.6,2.4,1.1,4.6,1.5,5.4h-3.7c-.3-.6-.8-2.1-1.3-4.5-.5-2.5-1.5-3.3-3.5-3.4h-1.8v7.9h-3.5V9.6h0ZM522.9,18.1h2.1c2.4,0,3.9-1.2,3.9-3.1s-1.5-3.1-3.8-3.1-1.9.1-2.2.2v6h0Z"/>
    <polygon class="st1" points="547.5 20 540.1 20 540.1 25.6 548.3 25.6 548.3 28.5 536.5 28.5 536.5 9.4 547.9 9.4 547.9 12.2 540.1 12.2 540.1 17.2 547.5 17.2 547.5 20"/>
    <polygon class="st1" points="558.9 9.4 562.5 9.4 562.5 25.6 570.5 25.6 570.5 28.5 558.9 28.5 558.9 9.4"/>
    <polygon class="st1" points="577.1 12.3 571.5 12.3 571.5 9.4 586.3 9.4 586.3 12.3 580.7 12.3 580.7 28.5 577.1 28.5 577.1 12.3"/>
    <path class="st1" d="M589,9.6c1.6-.2,3.6-.4,5.7-.4,3.7,0,6.2.7,8,2.2,1.9,1.5,3,3.8,3,7s-1.2,6-3,7.6c-1.9,1.7-5,2.6-8.8,2.6s-3.7-.1-4.8-.3V9.6h0ZM592.6,25.8c.5,0,1.2,0,2,0,4.6,0,7.4-2.5,7.4-7.3,0-4.2-2.5-6.6-6.9-6.6s-1.9,0-2.4.2v13.7Z"/>
    <path class="st1" d="M610.9,26.5c0-1-.8-1.8-1.8-1.8s-1.8.8-1.8,1.8.8,1.8,1.8,1.8,1.8-.8,1.8-1.8"/>
  </g>
</svg>